<svg width="22" height="22" viewBox="0 0 22 22" fill="none" xmlns="http://www.w3.org/2000/svg">
<path d="M19.6331 9.67747L14.3631 7.68885L12.1602 4.785C11.9687 4.53913 11.7274 4.34112 11.4539 4.20534C11.1804 4.06955 10.8815 3.99941 10.579 4H5.12903C4.79572 3.99989 4.46743 4.08538 4.17281 4.24902C3.87818 4.41266 3.62615 4.64949 3.43871 4.93885L1.59025 7.78903C1.20526 8.38221 0.99956 9.08347 1 9.80126V15.4494C1 15.6392 1.07181 15.8212 1.19963 15.9554C1.32745 16.0896 1.50082 16.165 1.68158 16.165H3.14154C3.2898 16.7791 3.62889 17.3238 4.10514 17.7129C4.5814 18.102 5.16763 18.3133 5.77108 18.3133C6.37454 18.3133 6.96077 18.102 7.43703 17.7129C7.91328 17.3238 8.25237 16.7791 8.40063 16.165H12.6837C12.832 16.7791 13.1711 17.3238 13.6473 17.7129C14.1236 18.102 14.7098 18.3133 15.3133 18.3133C15.9167 18.3133 16.5029 18.102 16.9792 17.7129C17.4554 17.3238 17.7945 16.7791 17.9428 16.165H19.4028C19.5835 16.165 19.7569 16.0896 19.8847 15.9554C20.0125 15.8212 20.0843 15.6392 20.0843 15.4494V10.3508C20.0843 10.2035 20.041 10.0597 19.9602 9.9392C19.8795 9.81868 19.7652 9.72727 19.6331 9.67747ZM5.77108 16.8806C5.50148 16.8806 5.23792 16.7966 5.01375 16.6394C4.78958 16.4821 4.61486 16.2586 4.51168 15.9971C4.40851 15.7356 4.38151 15.4478 4.43411 15.1702C4.48671 14.8926 4.61654 14.6375 4.80718 14.4374C4.99782 14.2372 5.24072 14.1009 5.50514 14.0457C5.76957 13.9905 6.04366 14.0188 6.29275 14.1272C6.54183 14.2355 6.75473 14.4189 6.90452 14.6543C7.0543 14.8896 7.13425 15.1663 7.13425 15.4494C7.13371 15.8288 6.98992 16.1925 6.73439 16.4608C6.47887 16.729 6.13245 16.88 5.77108 16.8806ZM15.3133 16.8806C15.0436 16.8806 14.7801 16.7966 14.5559 16.6394C14.3317 16.4821 14.157 16.2586 14.0539 15.9971C13.9507 15.7356 13.9237 15.4478 13.9763 15.1702C14.0289 14.8926 14.1587 14.6375 14.3493 14.4374C14.54 14.2372 14.7829 14.1009 15.0473 14.0457C15.3117 13.9905 15.5858 14.0188 15.8349 14.1272C16.084 14.2355 16.2969 14.4189 16.4467 14.6543C16.5965 14.8896 16.6764 15.1663 16.6764 15.4494C16.6761 15.8288 16.5323 16.1926 16.2768 16.461C16.0212 16.7293 15.6747 16.8802 15.3133 16.8806ZM18.7212 14.7338H17.9428C17.7945 14.1197 17.4554 13.575 16.9792 13.1859C16.5029 12.7968 15.9167 12.5855 15.3133 12.5855C14.7098 12.5855 14.1236 12.7968 13.6473 13.1859C13.1711 13.575 12.832 14.1197 12.6837 14.7338H8.40063C8.25237 14.1197 7.91328 13.575 7.43703 13.1859C6.96077 12.7968 6.37454 12.5855 5.77108 12.5855C5.16763 12.5855 4.5814 12.7968 4.10514 13.1859C3.62889 13.575 3.2898 14.1197 3.14154 14.7338H2.36317V9.80126C2.36309 9.37039 2.4866 8.94949 2.71759 8.59335L4.56536 5.7446C4.62785 5.64806 4.71187 5.56902 4.81012 5.51439C4.90837 5.45976 5.01786 5.43119 5.12903 5.43118H10.579C10.6781 5.43077 10.7762 5.45324 10.8662 5.49702C10.9562 5.54079 11.0359 5.60479 11.0997 5.68449L13.4171 8.73933C13.4959 8.84319 13.6007 8.92199 13.7197 8.96689L18.7212 10.8539V14.7338Z" fill="black"/>
</svg>
