<svg width="22" height="22" viewBox="0 0 22 22" fill="none" xmlns="http://www.w3.org/2000/svg">
<path d="M9.17574 7.71968C8.35679 7.71968 7.57137 8.045 6.99229 8.62409C6.4132 9.20318 6.08787 9.98859 6.08787 10.8075C6.08787 11.217 6.25054 11.6097 6.54008 11.8993C6.82962 12.1888 7.22233 12.3515 7.63181 12.3515H13.8075C14.217 12.3515 14.6097 12.1888 14.8993 11.8993C15.1888 11.6097 15.3515 11.217 15.3515 10.8075C15.3515 9.98859 15.0262 9.20318 14.4471 8.62409C13.868 8.045 13.0826 7.71968 12.2636 7.71968H9.17574ZM7.63181 10.8075C7.63181 10.3981 7.79447 10.0054 8.08401 9.71582C8.37356 9.42628 8.76626 9.26361 9.17574 9.26361H12.2636C12.6731 9.26361 13.0658 9.42628 13.3553 9.71582C13.6449 10.0054 13.8075 10.3981 13.8075 10.8075H7.63181ZM10.7197 0C9.90072 0 9.11531 0.325328 8.53622 0.904416C7.95713 1.4835 7.63181 2.26892 7.63181 3.08787V3.73015C6.25491 4.33129 5.0833 5.32107 4.26058 6.57819C3.43786 7.83531 2.99977 9.30514 3 10.8075V17.7553C3 18.7789 3.40666 19.7607 4.13052 20.4846C4.85438 21.2084 5.83615 21.6151 6.85984 21.6151H14.5795C15.6032 21.6151 16.585 21.2084 17.3088 20.4846C18.0327 19.7607 18.4394 18.7789 18.4394 17.7553V10.8075C18.4394 7.64248 16.5341 4.92129 13.8075 3.73015V3.08787C13.8075 2.26892 13.4822 1.4835 12.9031 0.904416C12.324 0.325328 11.5386 0 10.7197 0ZM16.8954 13.8954H4.54394V10.8075C4.54394 9.16964 5.19459 7.59881 6.35277 6.44064C7.51094 5.28246 9.08177 4.63181 10.7197 4.63181C12.3576 4.63181 13.9284 5.28246 15.0866 6.44064C16.2448 7.59881 16.8954 9.16964 16.8954 10.8075V13.8954ZM7.63181 17.7553C7.63181 17.96 7.71314 18.1563 7.85791 18.3011C8.00268 18.4459 8.19904 18.5272 8.40377 18.5272C8.60851 18.5272 8.80486 18.4459 8.94964 18.3011C9.09441 18.1563 9.17574 17.96 9.17574 17.7553V15.4394H16.8954V17.7553C16.8954 18.3695 16.6514 18.9585 16.2171 19.3928C15.7828 19.8272 15.1937 20.0712 14.5795 20.0712H6.85984C6.24562 20.0712 5.65656 19.8272 5.22225 19.3928C4.78793 18.9585 4.54394 18.3695 4.54394 17.7553V15.4394H7.63181V17.7553ZM10.7197 3.08787C10.1909 3.08787 9.67443 3.14114 9.17574 3.24226V3.08787C9.17574 2.67839 9.33841 2.28569 9.62795 1.99614C9.91749 1.7066 10.3102 1.54394 10.7197 1.54394C11.1292 1.54394 11.5219 1.7066 11.8114 1.99614C12.1009 2.28569 12.2636 2.67839 12.2636 3.08787V3.24226C11.7649 3.14114 11.2485 3.08787 10.7197 3.08787Z" fill="black"/>
</svg>
