<svg width="23" height="21" viewBox="0 0 23 21" fill="none" xmlns="http://www.w3.org/2000/svg">
<path d="M1.34045 18.3406L2.79467 18.9484V9.14865L0.157532 15.5082C-0.287417 16.6151 0.244351 17.8848 1.34045 18.3406V18.3406ZM22.5027 14.3253L17.1199 1.33491C16.9561 0.946669 16.6835 0.614087 16.335 0.377246C15.9864 0.140406 15.5768 0.00941491 15.1556 6.10352e-05C14.8734 6.10352e-05 14.5804 0.0434708 14.2982 0.162847L6.3 3.47283C5.77197 3.69348 5.35251 4.11382 5.13298 4.64231C4.91345 5.17081 4.91164 5.76464 5.12794 6.29446L10.5107 19.2848C10.7312 19.813 11.1515 20.2327 11.68 20.4522C12.2086 20.6718 12.8026 20.6735 13.3324 20.4569L21.3197 17.1469C21.8507 16.9295 22.2736 16.5101 22.4954 15.981C22.7172 15.4519 22.7198 14.8563 22.5027 14.3253V14.3253ZM7.14649 6.51151C6.54961 6.51151 6.06125 6.02315 6.06125 5.42627C6.06125 4.82939 6.54961 4.34103 7.14649 4.34103C7.74337 4.34103 8.23173 4.82939 8.23173 5.42627C8.23173 6.02315 7.74337 6.51151 7.14649 6.51151V6.51151ZM4.97601 18.4492C4.97601 19.6429 5.95272 20.6197 7.14649 20.6197H8.72009L4.97601 11.5687V18.4492Z" fill="white"/>
</svg>
