<svg width="22" height="22" viewBox="0 0 22 22" fill="none" xmlns="http://www.w3.org/2000/svg">
<path d="M19.239 6.48614L14.2287 4.08463C14.1127 4.02897 13.9848 4 13.8551 4C13.7253 4 13.5974 4.02897 13.4814 4.08463L8.84526 6.30763L4.2083 4.08463C4.08096 4.02363 3.93946 3.99485 3.79726 4.00102C3.65505 4.00719 3.51685 4.04812 3.39578 4.1199C3.27471 4.19169 3.1748 4.29195 3.10553 4.41117C3.03626 4.53039 2.99993 4.66461 3 4.80108V15.2077C3 15.511 3.1787 15.788 3.46178 15.9241L8.47199 18.3256C8.58801 18.3813 8.71595 18.4102 8.84567 18.4102C8.9754 18.4102 9.10334 18.3813 9.21935 18.3256L13.8555 16.1026L18.4924 18.3248C18.6194 18.3864 18.7608 18.4156 18.903 18.4096C19.0451 18.4035 19.1833 18.3625 19.3041 18.2904C19.5504 18.1439 19.7007 17.8869 19.7007 17.6092V7.2026C19.7007 6.8992 19.522 6.62223 19.239 6.48614ZM9.68029 7.69731L13.0204 6.0963V14.7129L9.68029 16.3139V7.69731ZM4.67007 6.0963L8.01022 7.69731V16.3139L4.67007 14.7129V6.0963ZM18.0307 16.3139L14.6905 14.7129V6.0963L18.0307 7.69731V16.3139Z" fill="black"/>
</svg>
