<svg width="20" height="20" viewBox="0 0 20 20" fill="none" xmlns="http://www.w3.org/2000/svg">
<path d="M9.99992 5.75C8.89485 5.75 7.83504 6.16704 7.05364 6.90937C6.27224 7.6517 5.83325 8.65852 5.83325 9.70833C5.83325 10.7581 6.27224 11.765 7.05364 12.5073C7.83504 13.2496 8.89485 13.6667 9.99992 13.6667C11.105 13.6667 12.1648 13.2496 12.9462 12.5073C13.7276 11.765 14.1666 10.7581 14.1666 9.70833C14.1666 8.65852 13.7276 7.6517 12.9462 6.90937C12.1648 6.16704 11.105 5.75 9.99992 5.75V5.75Z" fill="black"/>
<path fill-rule="evenodd" clip-rule="evenodd" d="M9.99992 1C10.2209 1 10.4329 1.08341 10.5892 1.23187C10.7455 1.38034 10.8333 1.5817 10.8333 1.79167V2.58333C10.8333 2.7933 10.7455 2.99466 10.5892 3.14313C10.4329 3.29159 10.2209 3.375 9.99992 3.375C9.7789 3.375 9.56694 3.29159 9.41066 3.14313C9.25438 2.99466 9.16658 2.7933 9.16658 2.58333V1.79167C9.16658 1.5817 9.25438 1.38034 9.41066 1.23187C9.56694 1.08341 9.7789 1 9.99992 1V1ZM2.74409 2.81529C2.90036 2.66688 3.11228 2.5835 3.33325 2.5835C3.55422 2.5835 3.76615 2.66688 3.92242 2.81529L5.17242 4.00279C5.32422 4.1521 5.40821 4.35208 5.40631 4.55965C5.40441 4.76722 5.31677 4.96578 5.16227 5.11256C5.00776 5.25935 4.79875 5.3426 4.58025 5.34441C4.36176 5.34621 4.15125 5.26642 3.99409 5.12221L2.74409 3.93471C2.58786 3.78625 2.5001 3.58492 2.5001 3.375C2.5001 3.16508 2.58786 2.96375 2.74409 2.81529V2.81529ZM17.2558 2.81529C17.412 2.96375 17.4997 3.16508 17.4997 3.375C17.4997 3.58492 17.412 3.78625 17.2558 3.93471L16.0058 5.12221C15.9289 5.19782 15.8369 5.25813 15.7353 5.29962C15.6336 5.34111 15.5242 5.36295 15.4136 5.36386C15.3029 5.36478 15.1932 5.34475 15.0908 5.30494C14.9884 5.26514 14.8953 5.20635 14.8171 5.13202C14.7388 5.05769 14.677 4.9693 14.6351 4.87201C14.5932 4.77471 14.5721 4.67047 14.573 4.56535C14.574 4.46023 14.597 4.35635 14.6407 4.25976C14.6843 4.16318 14.7478 4.07582 14.8274 4.00279L16.0774 2.81529C16.2337 2.66688 16.4456 2.5835 16.6666 2.5835C16.8876 2.5835 17.0995 2.66688 17.2558 2.81529ZM0.833252 9.70833C0.833252 9.49837 0.921049 9.29701 1.07733 9.14854C1.23361 9.00007 1.44557 8.91667 1.66659 8.91667H2.49992C2.72093 8.91667 2.93289 9.00007 3.08917 9.14854C3.24545 9.29701 3.33325 9.49837 3.33325 9.70833C3.33325 9.9183 3.24545 10.1197 3.08917 10.2681C2.93289 10.4166 2.72093 10.5 2.49992 10.5H1.66659C1.44557 10.5 1.23361 10.4166 1.07733 10.2681C0.921049 10.1197 0.833252 9.9183 0.833252 9.70833ZM16.6666 9.70833C16.6666 9.49837 16.7544 9.29701 16.9107 9.14854C17.0669 9.00007 17.2789 8.91667 17.4999 8.91667H18.3333C18.5543 8.91667 18.7662 9.00007 18.9225 9.14854C19.0788 9.29701 19.1666 9.49837 19.1666 9.70833C19.1666 9.9183 19.0788 10.1197 18.9225 10.2681C18.7662 10.4166 18.5543 10.5 18.3333 10.5H17.4999C17.2789 10.5 17.0669 10.4166 16.9107 10.2681C16.7544 10.1197 16.6666 9.9183 16.6666 9.70833ZM5.17242 14.2945C5.32864 14.4429 5.41641 14.6442 5.41641 14.8542C5.41641 15.0641 5.32864 15.2654 5.17242 15.4139L3.92242 16.6014C3.76525 16.7456 3.55475 16.8254 3.33625 16.8236C3.11775 16.8218 2.90874 16.7385 2.75424 16.5917C2.59973 16.4449 2.51209 16.2464 2.51019 16.0388C2.50829 15.8312 2.59229 15.6313 2.74409 15.482L3.99409 14.2945C4.15036 14.146 4.36228 14.0627 4.58325 14.0627C4.80422 14.0627 5.01614 14.146 5.17242 14.2945V14.2945ZM14.8274 14.2945C14.9837 14.146 15.1956 14.0627 15.4166 14.0627C15.6376 14.0627 15.8495 14.146 16.0058 14.2945L17.2558 15.482C17.4075 15.6313 17.4915 15.8312 17.4896 16.0388C17.4877 16.2464 17.4001 16.4449 17.2456 16.5917C17.0911 16.7385 16.8821 16.8218 16.6636 16.8236C16.4451 16.8254 16.2346 16.7456 16.0774 16.6014L14.8274 15.4139C14.6712 15.2654 14.5834 15.0641 14.5834 14.8542C14.5834 14.6442 14.6712 14.4429 14.8274 14.2945ZM9.99992 16.0417C10.2209 16.0417 10.4329 16.1251 10.5892 16.2735C10.7455 16.422 10.8333 16.6234 10.8333 16.8333V17.625C10.8333 17.835 10.7455 18.0363 10.5892 18.1848C10.4329 18.3333 10.2209 18.4167 9.99992 18.4167C9.7789 18.4167 9.56694 18.3333 9.41066 18.1848C9.25438 18.0363 9.16658 17.835 9.16658 17.625V16.8333C9.16658 16.6234 9.25438 16.422 9.41066 16.2735C9.56694 16.1251 9.7789 16.0417 9.99992 16.0417V16.0417Z" fill="black"/>
</svg>
