<svg width="375" height="320" viewBox="0 0 375 320" fill="none" xmlns="http://www.w3.org/2000/svg">
<g clip-path="url(#clip0_501_7050)">
<rect width="375" height="320" fill="white"/>
<rect width="375" height="282.201" fill="#EAF7FF"/>
<g opacity="0.5">
<circle cx="201.22" cy="58.1067" r="13.5262" fill="url(#paint0_linear_501_7050)"/>
<ellipse cx="219.764" cy="64.2154" rx="13.308" ry="13.5262" fill="url(#paint1_linear_501_7050)"/>
<ellipse cx="213.874" cy="46.9801" rx="13.5262" ry="13.308" fill="url(#paint2_linear_501_7050)"/>
<circle cx="248.78" cy="51.9981" r="13.5262" fill="url(#paint3_linear_501_7050)"/>
<circle cx="238.09" cy="61.3791" r="13.308" fill="url(#paint4_linear_501_7050)"/>
<ellipse cx="234.381" cy="46.9801" rx="13.5262" ry="13.308" fill="url(#paint5_linear_501_7050)"/>
</g>
<circle cx="11.5773" cy="59.9349" r="24.2054" fill="url(#paint6_linear_501_7050)"/>
<ellipse cx="44.7618" cy="70.8666" rx="23.815" ry="24.2054" fill="url(#paint7_linear_501_7050)"/>
<ellipse cx="34.2211" cy="40.024" rx="24.2054" ry="23.815" fill="url(#paint8_linear_501_7050)"/>
<circle cx="96.6866" cy="49.0034" r="24.2054" fill="url(#paint9_linear_501_7050)"/>
<circle cx="77.5565" cy="65.7911" r="23.815" fill="url(#paint10_linear_501_7050)"/>
<ellipse cx="70.9193" cy="40.024" rx="24.2054" ry="23.815" fill="url(#paint11_linear_501_7050)"/>
<circle cx="258.217" cy="77.7414" r="24.2054" fill="url(#paint12_linear_501_7050)"/>
<ellipse cx="291.401" cy="88.673" rx="23.815" ry="24.2054" fill="url(#paint13_linear_501_7050)"/>
<ellipse cx="280.86" cy="57.8304" rx="24.2054" ry="23.815" fill="url(#paint14_linear_501_7050)"/>
<circle cx="343.326" cy="66.8098" r="24.2054" fill="url(#paint15_linear_501_7050)"/>
<circle cx="324.196" cy="83.5974" r="23.815" fill="url(#paint16_linear_501_7050)"/>
<ellipse cx="317.559" cy="57.8304" rx="24.2054" ry="23.815" fill="url(#paint17_linear_501_7050)"/>
<path fill-rule="evenodd" clip-rule="evenodd" d="M-1323.66 58.9465L-1311.97 98.0408C-1298.32 137.135 -1272.99 215.324 -1247.65 241.387C-1222.31 267.449 -1196.97 241.387 -1173.58 210.98C-1148.24 180.573 -1122.9 145.823 -1097.56 163.198C-1072.22 180.573 -1046.89 250.074 -1021.55 241.387C-996.208 232.699 -970.869 145.823 -945.53 145.823C-922.14 145.823 -896.801 232.699 -871.463 254.418C-846.124 276.137 -820.785 232.699 -795.446 219.668C-770.107 206.636 -744.769 224.011 -719.43 232.699C-694.091 241.387 -670.701 241.387 -645.362 250.074C-620.024 258.762 -594.685 276.137 -569.346 271.793C-544.007 267.449 -518.668 241.387 -493.33 202.292C-467.991 163.198 -442.652 111.072 -417.313 128.448C-393.923 145.823 -368.585 232.699 -343.246 254.418C-317.907 276.137 -292.568 232.699 -267.229 202.292C-241.891 171.886 -216.552 154.51 -191.213 167.542C-165.874 180.573 -142.484 224.011 -117.146 219.668C-91.8068 215.324 -66.468 163.198 -41.1292 141.479C-15.7903 119.76 9.54846 128.448 34.8873 145.823C60.2261 163.198 85.5649 189.261 108.955 193.605C134.293 197.948 159.632 180.573 184.971 176.229C210.31 171.886 235.649 180.573 260.987 171.886C286.326 163.198 311.665 137.135 337.004 158.854C362.343 180.573 385.733 250.074 411.071 276.137C436.41 302.2 461.749 284.825 487.088 245.73C512.427 206.636 537.765 145.823 563.104 115.416C588.443 85.0094 613.782 85.0094 637.171 85.0094C662.51 85.0094 687.849 85.0094 713.188 119.76C738.527 154.51 763.866 224.011 789.204 237.043C814.543 250.074 839.882 206.636 865.221 171.886C888.61 137.135 913.949 111.072 939.288 124.104C964.627 137.135 989.966 189.261 1003.61 215.324L1015.3 241.387V319.575H1003.61C989.966 319.575 964.627 319.575 939.288 319.575C913.949 319.575 888.61 319.575 865.221 319.575C839.882 319.575 814.543 319.575 789.204 319.575C763.866 319.575 738.527 319.575 713.188 319.575C687.849 319.575 662.51 319.575 637.171 319.575C613.782 319.575 588.443 319.575 563.104 319.575C537.765 319.575 512.427 319.575 487.088 319.575C461.749 319.575 436.41 319.575 411.071 319.575C385.733 319.575 362.343 319.575 337.004 319.575C311.665 319.575 286.326 319.575 260.987 319.575C235.649 319.575 210.31 319.575 184.971 319.575C159.632 319.575 134.293 319.575 108.955 319.575C85.5649 319.575 60.2261 319.575 34.8873 319.575C9.54846 319.575 -15.7903 319.575 -41.1292 319.575C-66.468 319.575 -91.8068 319.575 -117.146 319.575C-142.484 319.575 -165.874 319.575 -191.213 319.575C-216.552 319.575 -241.891 319.575 -267.229 319.575C-292.568 319.575 -317.907 319.575 -343.246 319.575C-368.585 319.575 -393.923 319.575 -417.313 319.575C-442.652 319.575 -467.991 319.575 -493.33 319.575C-518.668 319.575 -544.007 319.575 -569.346 319.575C-594.685 319.575 -620.024 319.575 -645.362 319.575C-670.701 319.575 -694.091 319.575 -719.43 319.575C-744.769 319.575 -770.107 319.575 -795.446 319.575C-820.785 319.575 -846.124 319.575 -871.463 319.575C-896.801 319.575 -922.14 319.575 -945.53 319.575C-970.869 319.575 -996.208 319.575 -1021.55 319.575C-1046.89 319.575 -1072.22 319.575 -1097.56 319.575C-1122.9 319.575 -1148.24 319.575 -1173.58 319.575C-1196.97 319.575 -1222.31 319.575 -1247.65 319.575C-1272.99 319.575 -1298.32 319.575 -1311.97 319.575H-1323.66V58.9465Z" fill="#E5F1DA"/>
<rect x="155.689" y="123.661" width="63.6212" height="146.559" rx="8.42524" fill="#3B9FB5"/>
<path d="M187.131 156.515C187.228 156.515 187.276 156.542 187.276 156.597C187.276 156.639 187.242 156.79 187.173 157.052C186.952 157.96 186.746 158.972 186.553 160.087C186.54 160.169 186.491 160.217 186.409 160.231C186.409 160.231 186.395 160.238 186.368 160.252C186.34 160.252 186.299 160.259 186.244 160.272C186.202 160.272 186.147 160.279 186.078 160.293C186.01 160.307 185.934 160.321 185.851 160.334C185.769 160.348 185.679 160.362 185.583 160.376C185.5 160.376 185.404 160.383 185.294 160.396C185.198 160.396 185.094 160.396 184.984 160.396C184.874 160.396 184.757 160.396 184.633 160.396C184.509 160.383 184.392 160.369 184.282 160.355C183.842 160.314 183.429 160.252 183.044 160.169C182.672 160.087 182.41 160.025 182.259 159.983C182.108 159.928 181.936 159.866 181.743 159.798C181.591 159.729 181.488 159.701 181.433 159.715C181.378 159.715 181.344 159.763 181.33 159.86C181.068 161.153 180.759 162.764 180.401 164.691C180.043 166.604 179.747 168.201 179.513 169.481C179.293 170.761 179.183 171.408 179.183 171.421V171.442C179.196 171.58 179.135 171.655 178.997 171.669C178.873 171.697 178.405 171.71 177.593 171.71C176.877 171.697 176.265 171.69 175.755 171.69C175.604 171.69 175.528 171.676 175.528 171.648C175.501 171.566 175.68 170.547 176.065 168.593C176.203 167.905 176.334 167.23 176.457 166.57C176.953 164.023 177.304 162.158 177.51 160.974C177.717 159.777 177.848 159.047 177.903 158.786C177.916 158.69 177.91 158.628 177.882 158.6C177.868 158.559 177.813 158.531 177.717 158.518C176.464 158.476 175.494 158.862 174.806 159.674C174.682 159.811 174.503 160.142 174.269 160.665C174.214 160.802 174.262 160.933 174.413 161.057C174.716 161.305 174.909 161.573 174.992 161.862C175.074 162.137 175.06 162.461 174.95 162.833C174.868 163.135 174.682 163.376 174.393 163.555C174.104 163.734 173.794 163.824 173.464 163.824C173.133 163.824 172.824 163.7 172.535 163.452C172.246 163.19 172.074 162.826 172.019 162.358C171.936 161.532 171.929 160.906 171.998 160.479C172.08 160.052 172.246 159.626 172.493 159.199C172.961 158.442 173.615 157.843 174.455 157.403C175.294 156.948 176.223 156.653 177.242 156.515C178.15 156.391 178.99 156.343 179.761 156.37C180.532 156.398 181.22 156.439 181.825 156.494C182.445 156.536 182.775 156.542 182.816 156.515C182.899 156.487 182.961 156.494 183.002 156.536C183.057 156.577 183.112 156.604 183.167 156.618C183.236 156.618 183.312 156.611 183.394 156.597C183.477 156.584 183.539 156.577 183.58 156.577C184.792 156.604 185.487 156.625 185.666 156.639C185.858 156.639 186.058 156.625 186.264 156.597C186.485 156.556 186.774 156.529 187.131 156.515ZM180.215 158.786C180.215 158.772 180.208 158.752 180.194 158.724C180.181 158.724 180.16 158.731 180.132 158.745C180.119 158.758 180.105 158.772 180.091 158.786C180.105 158.786 180.126 158.786 180.153 158.786C180.181 158.786 180.201 158.786 180.215 158.786ZM179.451 159.798C179.382 159.866 179.341 159.915 179.327 159.942C179.341 159.97 179.362 160.004 179.389 160.045C179.417 160.073 179.437 160.094 179.451 160.107C179.52 160.011 179.547 159.956 179.534 159.942C179.534 159.942 179.506 159.894 179.451 159.798ZM179.224 162.771C179.169 162.826 179.135 162.86 179.121 162.874C179.121 162.874 179.128 162.888 179.141 162.915C179.155 162.929 179.169 162.936 179.183 162.936C179.183 162.936 179.21 162.915 179.265 162.874C179.252 162.846 179.238 162.812 179.224 162.771ZM177.758 164.154C177.758 164.154 177.751 164.154 177.737 164.154C177.751 164.168 177.758 164.175 177.758 164.175C177.772 164.175 177.779 164.175 177.779 164.175L177.758 164.154ZM177.201 168.861C177.214 168.847 177.221 168.841 177.221 168.841L177.201 168.82C177.187 168.834 177.18 168.841 177.18 168.841C177.194 168.841 177.201 168.847 177.201 168.861ZM177.386 167.973C177.4 167.932 177.4 167.898 177.386 167.87C177.373 167.898 177.373 167.932 177.386 167.973ZM177.614 170.43C177.655 170.472 177.676 170.492 177.676 170.492C177.676 170.492 177.731 170.472 177.841 170.43C177.786 170.362 177.751 170.327 177.737 170.327C177.737 170.327 177.696 170.362 177.614 170.43ZM177.841 165.64C177.882 165.613 177.903 165.599 177.903 165.599C177.903 165.599 177.882 165.572 177.841 165.517C177.813 165.558 177.799 165.579 177.799 165.579C177.799 165.579 177.813 165.599 177.841 165.64ZM177.903 164.237C177.985 164.292 178.027 164.319 178.027 164.319C178.027 164.319 178.047 164.298 178.088 164.257C178.075 164.243 178.054 164.23 178.027 164.216C178.013 164.202 177.999 164.188 177.985 164.175C177.958 164.188 177.93 164.209 177.903 164.237ZM178.667 166.941C178.68 166.927 178.68 166.907 178.667 166.879C178.667 166.852 178.667 166.831 178.667 166.817C178.611 166.804 178.46 166.824 178.212 166.879C178.309 166.921 178.357 166.941 178.357 166.941C178.371 166.941 178.446 166.948 178.584 166.962C178.639 166.948 178.667 166.941 178.667 166.941ZM178.254 164.092C178.281 164.12 178.309 164.126 178.336 164.113C178.322 164.085 178.295 164.078 178.254 164.092ZM178.46 165.909C178.446 165.95 178.446 165.985 178.46 166.012C178.474 165.985 178.474 165.95 178.46 165.909ZM178.439 163.514C178.522 163.514 178.577 163.514 178.605 163.514C178.646 163.5 178.667 163.493 178.667 163.493C178.667 163.479 178.667 163.459 178.667 163.431C178.68 163.39 178.694 163.356 178.708 163.328C178.68 163.314 178.653 163.301 178.625 163.287C178.611 163.273 178.598 163.266 178.584 163.266C178.584 163.266 178.577 163.266 178.563 163.266C178.55 163.252 178.536 163.252 178.522 163.266C178.508 163.266 178.488 163.266 178.46 163.266C178.446 163.266 178.412 163.273 178.357 163.287C178.302 163.287 178.247 163.287 178.192 163.287C178.219 163.342 178.302 163.418 178.439 163.514ZM178.832 160.252C178.845 160.279 178.873 160.286 178.914 160.272C178.887 160.245 178.859 160.238 178.832 160.252ZM178.894 165.764C178.894 165.764 178.901 165.751 178.914 165.723H178.894C178.88 165.737 178.88 165.751 178.894 165.764ZM179.1 163.638C179.155 163.569 179.183 163.535 179.183 163.535C179.183 163.535 179.162 163.452 179.121 163.287C179.052 163.369 179.018 163.411 179.018 163.411C179.018 163.411 179.045 163.486 179.1 163.638ZM179.162 165.806C179.258 165.861 179.307 165.888 179.307 165.888C179.32 165.888 179.341 165.874 179.369 165.847C179.341 165.819 179.307 165.785 179.265 165.744C179.252 165.757 179.231 165.771 179.203 165.785C179.176 165.799 179.162 165.806 179.162 165.806ZM179.658 162.007C179.671 162.007 179.692 162 179.719 161.986C179.761 161.972 179.788 161.959 179.802 161.945C179.733 161.835 179.685 161.773 179.658 161.759C179.63 161.745 179.534 161.738 179.369 161.738C179.465 161.89 179.513 161.972 179.513 161.986C179.527 161.986 179.575 161.993 179.658 162.007ZM180.009 158.373C179.94 158.318 179.898 158.29 179.885 158.29C179.885 158.277 179.864 158.284 179.823 158.311C179.878 158.366 179.905 158.394 179.905 158.394C179.919 158.394 179.953 158.387 180.009 158.373ZM179.885 159.385C179.926 159.357 179.96 159.337 179.988 159.323C179.974 159.309 179.96 159.295 179.947 159.281C179.905 159.309 179.885 159.343 179.885 159.385ZM179.967 158.807C179.967 158.807 179.967 158.813 179.967 158.827C179.981 158.827 179.988 158.834 179.988 158.848C180.015 158.82 180.036 158.8 180.05 158.786C180.036 158.786 180.009 158.793 179.967 158.807ZM180.009 159.509C180.022 159.522 180.043 159.543 180.07 159.571C180.112 159.598 180.16 159.584 180.215 159.529C180.243 159.515 180.263 159.502 180.277 159.488C180.236 159.447 180.194 159.405 180.153 159.364C180.112 159.405 180.064 159.454 180.009 159.509ZM180.979 157.444C180.979 157.43 180.979 157.423 180.979 157.423C180.993 157.41 181 157.403 181 157.403C181 157.403 180.993 157.396 180.979 157.382C180.979 157.368 180.979 157.361 180.979 157.361C180.965 157.375 180.965 157.403 180.979 157.444ZM181.702 159.426C181.743 159.454 181.784 159.454 181.825 159.426C181.812 159.426 181.798 159.419 181.784 159.405C181.77 159.392 181.757 159.378 181.743 159.364C181.743 159.378 181.736 159.392 181.722 159.405C181.722 159.419 181.715 159.426 181.702 159.426ZM182.589 156.825C182.617 156.811 182.637 156.797 182.651 156.783C182.637 156.742 182.631 156.721 182.631 156.721C182.576 156.749 182.548 156.77 182.548 156.783C182.548 156.783 182.562 156.797 182.589 156.825ZM182.796 158.043C182.823 158.07 182.851 158.077 182.878 158.063C182.865 158.036 182.837 158.029 182.796 158.043ZM183.849 158.208C183.849 158.18 183.849 158.16 183.849 158.146C183.849 158.105 183.828 158.056 183.787 158.001L183.745 157.919C183.718 157.946 183.69 157.981 183.663 158.022C183.635 158.05 183.615 158.07 183.601 158.084C183.601 158.084 183.601 158.105 183.601 158.146C183.615 158.173 183.628 158.208 183.642 158.249C183.67 158.277 183.711 158.332 183.766 158.414C183.766 158.414 183.78 158.414 183.807 158.414C183.835 158.401 183.849 158.394 183.849 158.394C183.849 158.366 183.849 158.304 183.849 158.208ZM184.117 157.754C184.145 157.726 184.152 157.699 184.138 157.671C184.11 157.685 184.103 157.712 184.117 157.754ZM184.798 158.683C184.84 158.531 184.847 158.428 184.819 158.373C184.764 158.497 184.736 158.566 184.736 158.579C184.736 158.579 184.757 158.614 184.798 158.683ZM185.438 158.063C185.452 158.063 185.459 158.063 185.459 158.063C185.473 158.05 185.48 158.043 185.48 158.043C185.48 158.029 185.473 158.015 185.459 158.001C185.459 158.001 185.459 157.995 185.459 157.981C185.432 158.008 185.425 158.036 185.438 158.063ZM186.223 159.385C186.237 159.343 186.244 159.323 186.244 159.323C186.23 159.323 186.216 159.323 186.202 159.323C186.189 159.309 186.182 159.295 186.182 159.281C186.154 159.323 186.14 159.343 186.14 159.343C186.14 159.343 186.168 159.357 186.223 159.385ZM195.011 167.808C195.162 167.891 195.19 168.015 195.093 168.18C194.033 170.024 192.678 171.153 191.026 171.566C190.296 171.745 189.65 171.697 189.085 171.421C188.948 171.353 188.824 171.27 188.714 171.174C188.603 171.077 188.528 170.995 188.486 170.926C188.445 170.843 188.397 170.774 188.342 170.719C188.301 170.651 188.266 170.609 188.239 170.596C188.211 170.582 188.17 170.596 188.115 170.637C187.317 171.366 186.429 171.752 185.452 171.793C184.474 171.834 183.614 171.47 182.871 170.699C182.196 169.942 181.811 168.813 181.715 167.313C181.701 166.955 181.728 166.549 181.797 166.095C181.88 165.627 182.024 165.124 182.231 164.587C182.437 164.037 182.692 163.555 182.995 163.142C183.435 162.523 183.993 162.055 184.667 161.738C185.355 161.408 186.036 161.25 186.711 161.263C187.385 161.277 187.998 161.429 188.548 161.718C188.631 161.773 188.686 161.759 188.714 161.676L188.734 161.635L188.755 161.594C188.769 161.566 188.776 161.532 188.776 161.491C188.776 161.436 188.776 161.394 188.776 161.367C188.789 161.339 188.803 161.319 188.817 161.305C188.858 161.277 189.994 161.27 192.223 161.284C192.361 161.284 192.437 161.298 192.451 161.325C192.464 161.339 192.457 161.415 192.43 161.553C192.416 161.621 192.361 161.855 192.265 162.254C192.182 162.654 192.106 163.005 192.038 163.307C191.969 163.61 191.886 164.003 191.79 164.484C191.694 164.952 191.618 165.379 191.563 165.764C191.521 166.136 191.48 166.521 191.439 166.921C191.398 167.306 191.384 167.643 191.398 167.932C191.411 168.221 191.46 168.441 191.542 168.593C191.638 168.827 191.797 168.916 192.017 168.861C192.251 168.806 192.471 168.703 192.678 168.552C192.898 168.4 193.104 168.214 193.297 167.994C193.407 167.856 193.51 167.719 193.607 167.581C193.703 167.444 193.772 167.354 193.813 167.313C193.854 167.271 193.889 167.23 193.916 167.189C193.944 167.134 193.985 167.127 194.04 167.168C194.095 167.21 194.15 167.251 194.205 167.292C194.261 167.32 194.364 167.388 194.515 167.499C194.667 167.595 194.832 167.698 195.011 167.808ZM182.561 168.118C182.575 168.118 182.582 168.111 182.582 168.097C182.568 168.097 182.561 168.09 182.561 168.077L182.54 168.097C182.54 168.097 182.547 168.104 182.561 168.118ZM183.903 167.953L183.841 167.891C183.841 167.905 183.8 167.932 183.717 167.973C183.745 168.001 183.779 168.029 183.82 168.056C183.876 168.001 183.903 167.967 183.903 167.953ZM183.82 163.947C183.793 163.961 183.786 163.989 183.8 164.03C183.814 164.016 183.82 164.009 183.82 164.009C183.834 163.996 183.841 163.989 183.841 163.989V163.968L183.82 163.947ZM183.428 165.434C183.346 165.517 183.304 165.579 183.304 165.62C183.318 165.647 183.421 165.792 183.614 166.053C183.614 166.053 183.648 166.046 183.717 166.033C183.69 165.964 183.662 165.881 183.635 165.785C183.566 165.606 183.518 165.51 183.49 165.496L183.428 165.434ZM183.057 166.776C183.07 166.79 183.091 166.81 183.119 166.838C183.16 166.879 183.201 166.886 183.242 166.859C183.284 166.845 183.318 166.831 183.346 166.817C183.222 166.776 183.125 166.762 183.057 166.776ZM183.469 166.508C183.525 166.549 183.552 166.57 183.552 166.57C183.566 166.57 183.628 166.563 183.738 166.549C183.642 166.48 183.586 166.446 183.573 166.446C183.573 166.446 183.538 166.466 183.469 166.508ZM183.738 167.271C183.669 167.23 183.621 167.216 183.593 167.23C183.635 167.285 183.655 167.313 183.655 167.313C183.655 167.313 183.683 167.299 183.738 167.271ZM183.593 169.481C183.635 169.494 183.676 169.508 183.717 169.522C183.8 169.577 183.876 169.577 183.944 169.522C183.958 169.508 183.965 169.501 183.965 169.501C183.979 169.487 183.993 169.474 184.006 169.46C184.034 169.432 184.054 169.412 184.068 169.398C183.944 169.371 183.807 169.371 183.655 169.398C183.655 169.398 183.635 169.426 183.593 169.481ZM184.006 165.661C184.061 165.62 184.089 165.599 184.089 165.599C184.089 165.585 184.068 165.523 184.027 165.413C183.999 165.441 183.979 165.468 183.965 165.496C183.924 165.537 183.924 165.579 183.965 165.62C183.979 165.634 183.993 165.647 184.006 165.661ZM184.956 170.141C184.956 170.141 184.956 170.134 184.956 170.121H184.977C184.963 170.121 184.956 170.114 184.956 170.1C184.956 170.1 184.949 170.107 184.935 170.121C184.935 170.121 184.935 170.128 184.935 170.141C184.949 170.141 184.956 170.141 184.956 170.141ZM188.074 166.074C188.087 166.06 188.142 165.647 188.239 164.835C188.225 164.835 188.211 164.835 188.197 164.835C188.197 164.821 188.197 164.801 188.197 164.773C188.197 164.622 188.191 164.512 188.177 164.443C188.177 164.36 188.142 164.271 188.074 164.175C188.019 164.078 187.922 164.016 187.785 163.989C187.041 163.837 186.47 163.996 186.071 164.464C185.686 164.932 185.417 165.613 185.266 166.508C185.211 166.879 185.218 167.265 185.286 167.664C185.355 168.063 185.513 168.414 185.761 168.717C186.023 169.006 186.36 169.109 186.773 169.026C187.048 168.971 187.296 168.834 187.516 168.613C187.736 168.393 187.874 168.146 187.929 167.87C187.957 167.788 187.97 167.657 187.97 167.478C187.984 167.299 187.998 167.079 188.012 166.817C188.039 166.542 188.06 166.294 188.074 166.074ZM188.796 162.647C188.81 162.633 188.817 162.626 188.817 162.626C188.817 162.626 188.81 162.619 188.796 162.605C188.796 162.605 188.789 162.612 188.776 162.626C188.776 162.64 188.782 162.647 188.796 162.647ZM188.858 168.097C188.872 168.139 188.879 168.166 188.879 168.18C188.893 168.18 188.913 168.166 188.941 168.139C188.927 168.111 188.92 168.09 188.92 168.077C188.906 168.077 188.893 168.084 188.879 168.097C188.865 168.097 188.858 168.097 188.858 168.097ZM190.448 162.378C190.42 162.351 190.393 162.344 190.365 162.358C190.379 162.385 190.407 162.392 190.448 162.378ZM189.952 164.67C190.035 164.684 190.131 164.649 190.241 164.567C190.352 164.471 190.407 164.381 190.407 164.298C190.269 164.12 190.186 164.03 190.159 164.03C190.131 164.016 190.083 164.058 190.014 164.154C190.014 164.168 190.001 164.209 189.973 164.278C189.945 164.333 189.925 164.374 189.911 164.402C189.897 164.429 189.863 164.457 189.808 164.484C189.767 164.498 189.718 164.498 189.663 164.484C189.663 164.484 189.643 164.491 189.601 164.505C189.629 164.56 189.643 164.587 189.643 164.587C189.78 164.643 189.884 164.67 189.952 164.67ZM190.014 166.219C190.001 166.205 189.987 166.205 189.973 166.219C189.987 166.219 190.001 166.225 190.014 166.239V166.219ZM190.159 163.287C190.035 163.342 189.932 163.445 189.849 163.596C189.767 163.748 189.67 163.817 189.56 163.803C189.546 163.803 189.533 163.858 189.519 163.968C189.519 163.968 189.533 163.982 189.56 164.009C189.711 163.927 189.787 163.886 189.787 163.886C189.897 163.886 189.973 163.858 190.014 163.803C190.069 163.748 190.111 163.672 190.138 163.576C190.166 163.479 190.193 163.418 190.221 163.39C190.248 163.335 190.248 163.301 190.221 163.287C190.207 163.273 190.186 163.273 190.159 163.287ZM189.477 162.915C189.45 162.998 189.471 163.073 189.539 163.142C189.608 163.197 189.698 163.225 189.808 163.225C189.89 163.184 189.932 163.163 189.932 163.163C189.945 163.149 189.939 163.115 189.911 163.06C189.884 163.005 189.849 162.956 189.808 162.915C189.767 162.874 189.746 162.853 189.746 162.853C189.567 162.881 189.477 162.901 189.477 162.915ZM189.188 163.555C189.161 163.583 189.154 163.61 189.168 163.638C189.182 163.624 189.195 163.617 189.209 163.617L189.188 163.576V163.555ZM189.147 169.481C189.147 169.632 189.182 169.715 189.25 169.728C189.292 169.742 189.319 169.715 189.333 169.646C189.347 169.618 189.347 169.591 189.333 169.563C189.333 169.549 189.305 169.439 189.25 169.233C189.182 169.384 189.147 169.467 189.147 169.481ZM189.333 167.85C189.319 167.712 189.333 167.588 189.374 167.478C189.361 167.423 189.333 167.361 189.292 167.292C189.278 167.361 189.244 167.471 189.188 167.622C189.147 167.774 189.113 167.891 189.085 167.973L189.127 168.077C189.209 168.049 189.264 168.035 189.292 168.035C189.333 168.022 189.354 168.015 189.354 168.015C189.367 168.001 189.367 167.98 189.354 167.953C189.34 167.912 189.333 167.877 189.333 167.85ZM189.209 167.168C189.223 167.168 189.23 167.168 189.23 167.168C189.244 167.168 189.25 167.168 189.25 167.168C189.25 167.154 189.244 167.148 189.23 167.148L189.209 167.168ZM189.436 167.189C189.477 167.093 189.498 167.044 189.498 167.044C189.498 167.044 189.471 167.017 189.416 166.962C189.361 167.044 189.333 167.086 189.333 167.086C189.333 167.086 189.367 167.12 189.436 167.189ZM189.498 165.599C189.553 165.613 189.594 165.606 189.622 165.579C189.65 165.537 189.663 165.489 189.663 165.434C189.677 165.365 189.691 165.317 189.705 165.289C189.705 165.289 189.656 165.234 189.56 165.124C189.354 165.248 189.237 165.317 189.209 165.331C189.223 165.345 189.25 165.379 189.292 165.434C189.333 165.489 189.367 165.53 189.395 165.558C189.422 165.585 189.457 165.599 189.498 165.599ZM189.849 169.563C189.89 169.577 189.918 169.57 189.932 169.543C189.904 169.529 189.877 169.536 189.849 169.563ZM190.345 168.159C190.358 168.159 190.379 168.132 190.407 168.077C190.241 168.008 190.152 167.973 190.138 167.973C190.069 167.973 190.007 167.994 189.952 168.035C189.897 168.063 189.856 168.097 189.828 168.139C189.801 168.18 189.767 168.235 189.725 168.304C189.684 168.359 189.65 168.407 189.622 168.448C189.622 168.448 189.622 168.51 189.622 168.634C189.732 168.62 189.787 168.607 189.787 168.593C189.856 168.565 189.939 168.49 190.035 168.366C190.145 168.242 190.248 168.173 190.345 168.159ZM190.51 169.46C190.51 169.446 190.51 169.439 190.51 169.439C190.51 169.426 190.51 169.419 190.51 169.419C190.496 169.419 190.489 169.426 190.489 169.439C190.489 169.439 190.496 169.446 190.51 169.46ZM190.427 167.354C190.441 167.327 190.475 167.285 190.53 167.23C190.475 167.216 190.448 167.21 190.448 167.21C190.407 167.265 190.4 167.313 190.427 167.354ZM190.365 163.762C190.393 163.789 190.407 163.803 190.407 163.803C190.42 163.789 190.475 163.755 190.572 163.7C190.544 163.686 190.517 163.665 190.489 163.638C190.475 163.652 190.455 163.672 190.427 163.7C190.4 163.727 190.379 163.748 190.365 163.762ZM190.696 165.62C190.696 165.606 190.702 165.599 190.716 165.599C190.744 165.599 190.764 165.592 190.778 165.579C190.806 165.565 190.833 165.558 190.861 165.558C190.792 165.503 190.723 165.496 190.654 165.537C190.654 165.537 190.668 165.565 190.696 165.62ZM201.076 167.891C201.173 167.946 201.193 168.015 201.138 168.097C201.125 168.125 201.008 168.318 200.787 168.675C200.581 169.02 200.423 169.267 200.312 169.419C200.202 169.556 199.996 169.77 199.693 170.059C199.39 170.348 199.053 170.616 198.681 170.864C198.062 171.277 197.456 171.538 196.865 171.648C196.287 171.772 195.798 171.759 195.399 171.607C195 171.456 194.669 171.215 194.408 170.885C194.146 170.554 194.002 170.176 193.974 169.749C193.96 169.157 193.947 168.675 193.933 168.304C193.919 167.918 193.947 167.402 194.015 166.755C194.084 166.108 194.139 165.585 194.181 165.186C194.222 164.787 194.291 164.278 194.387 163.658C194.483 163.039 194.559 162.571 194.614 162.254C194.683 161.924 194.759 161.511 194.841 161.016C194.938 160.506 195 160.162 195.027 159.983C195.137 159.405 195.247 158.738 195.357 157.981C195.468 157.293 195.543 156.893 195.585 156.783C195.64 156.673 195.77 156.625 195.977 156.639C196.087 156.653 196.176 156.659 196.245 156.659C196.397 156.659 196.837 156.659 197.567 156.659C198.31 156.659 198.826 156.659 199.115 156.659C199.198 156.659 199.246 156.666 199.26 156.68C199.273 156.694 199.273 156.749 199.26 156.845C199.039 157.822 198.792 158.958 198.516 160.252C198.255 161.532 197.979 163.094 197.69 164.938C197.401 166.783 197.312 167.912 197.422 168.324C197.505 168.627 197.629 168.813 197.794 168.882C197.973 168.951 198.172 168.916 198.392 168.779C198.613 168.641 198.826 168.476 199.032 168.283C199.239 168.077 199.459 167.822 199.693 167.519C199.776 167.423 199.831 167.361 199.858 167.333C199.9 167.306 199.934 167.278 199.962 167.251C200.003 167.223 200.051 167.23 200.106 167.271C200.175 167.313 200.237 167.354 200.292 167.395C200.361 167.437 200.471 167.505 200.622 167.602C200.774 167.698 200.925 167.795 201.076 167.891ZM197.608 159.034C197.567 159.006 197.532 158.999 197.505 159.013C197.546 159.054 197.567 159.075 197.567 159.075C197.567 159.075 197.58 159.061 197.608 159.034ZM196.472 166.384C196.459 166.37 196.445 166.37 196.431 166.384C196.445 166.384 196.459 166.391 196.472 166.404V166.384ZM195.956 160.954C195.929 160.981 195.922 161.009 195.936 161.036C195.949 161.036 195.963 161.023 195.977 160.995C195.977 160.995 195.97 160.988 195.956 160.974C195.956 160.961 195.956 160.954 195.956 160.954ZM195.44 165.682C195.426 165.668 195.412 165.654 195.399 165.64C195.371 165.627 195.323 165.634 195.254 165.661C195.227 165.675 195.206 165.689 195.192 165.702C195.247 165.716 195.295 165.73 195.337 165.744C195.351 165.73 195.364 165.723 195.378 165.723L195.44 165.682ZM195.399 166.673C195.371 166.673 195.323 166.728 195.254 166.838C195.199 166.948 195.179 167.024 195.192 167.065C195.261 167.354 195.316 167.533 195.357 167.602C195.385 167.561 195.426 167.368 195.481 167.024C195.481 167.01 195.509 166.941 195.564 166.817C195.468 166.721 195.412 166.673 195.399 166.673ZM195.812 169.481C195.812 169.481 195.825 169.46 195.853 169.419C195.867 169.281 195.825 169.198 195.729 169.171C195.633 169.143 195.509 169.15 195.357 169.192C195.357 169.192 195.33 169.198 195.275 169.212C195.33 169.24 195.357 169.254 195.357 169.254C195.578 169.24 195.715 169.309 195.77 169.46L195.812 169.481ZM196.204 165.661C196.025 165.523 195.929 165.455 195.915 165.455C195.915 165.455 195.894 165.455 195.853 165.455C195.867 165.482 195.88 165.517 195.894 165.558C195.922 165.585 195.936 165.606 195.936 165.62C195.949 165.634 195.963 165.654 195.977 165.682C196.004 165.696 196.025 165.702 196.039 165.702C196.053 165.702 196.073 165.709 196.101 165.723C196.101 165.723 196.135 165.702 196.204 165.661ZM196.142 168.469C196.156 168.414 196.142 168.352 196.101 168.283C196.059 168.338 196.039 168.373 196.039 168.386C196.039 168.386 196.073 168.414 196.142 168.469ZM195.956 170.575C195.956 170.561 195.977 170.554 196.018 170.554C196.059 170.54 196.094 170.527 196.121 170.513C196.053 170.458 195.984 170.451 195.915 170.492C195.915 170.492 195.929 170.52 195.956 170.575ZM196.266 170.038C196.335 170.011 196.397 169.983 196.452 169.955C196.424 169.942 196.397 169.921 196.369 169.894C196.273 169.838 196.204 169.832 196.163 169.873C196.121 169.9 196.094 169.928 196.08 169.955C196.108 169.969 196.149 169.99 196.204 170.017C196.231 170.031 196.252 170.038 196.266 170.038ZM196.431 169.026C196.527 168.971 196.603 168.923 196.658 168.882C196.631 168.854 196.61 168.841 196.596 168.841C196.596 168.841 196.507 168.889 196.328 168.985C196.328 168.985 196.342 168.992 196.369 169.006C196.397 169.006 196.417 169.013 196.431 169.026ZM196.823 163.39C196.865 163.376 196.92 163.356 196.988 163.328C196.92 163.273 196.858 163.266 196.803 163.307C196.803 163.307 196.81 163.335 196.823 163.39ZM196.968 165.062C196.968 165.049 196.968 165.042 196.968 165.042C196.954 165.055 196.947 165.062 196.947 165.062C196.947 165.062 196.947 165.069 196.947 165.083C196.947 165.083 196.954 165.083 196.968 165.083C196.968 165.083 196.968 165.076 196.968 165.062ZM196.803 169.398C196.885 169.467 196.927 169.501 196.927 169.501C196.927 169.501 196.954 169.481 197.009 169.439C196.927 169.371 196.878 169.336 196.865 169.336C196.865 169.322 196.844 169.343 196.803 169.398ZM197.092 160.933C197.188 160.768 197.236 160.679 197.236 160.665C197.236 160.651 197.216 160.617 197.174 160.562C197.133 160.575 197.092 160.596 197.05 160.623C197.023 160.637 196.988 160.658 196.947 160.685C196.92 160.699 196.899 160.713 196.885 160.727C196.899 160.74 196.927 160.775 196.968 160.83C197.023 160.871 197.064 160.906 197.092 160.933ZM197.298 158.641C197.339 158.559 197.353 158.49 197.339 158.435C197.271 158.504 197.236 158.538 197.236 158.538C197.236 158.538 197.257 158.573 197.298 158.641ZM212.039 167.54C212.273 167.678 212.452 167.788 212.576 167.87C212.7 167.939 212.721 168.035 212.638 168.159C212.624 168.187 212.542 168.324 212.39 168.572C212.253 168.82 212.143 168.999 212.06 169.109C211.977 169.219 211.847 169.384 211.668 169.604C211.489 169.825 211.282 170.038 211.048 170.245C210.828 170.437 210.573 170.623 210.284 170.802C209.748 171.174 209.211 171.442 208.674 171.607C208.137 171.759 207.607 171.772 207.084 171.648C206.575 171.525 206.162 171.215 205.845 170.719C205.653 170.403 205.529 170.093 205.474 169.79C205.433 169.487 205.439 169.233 205.494 169.026C205.55 168.82 205.584 168.6 205.598 168.366C205.611 168.118 205.591 167.898 205.536 167.705C205.343 167.237 205.116 167.065 204.854 167.189C204.703 167.271 204.565 167.361 204.442 167.457C204.318 167.54 204.221 167.616 204.152 167.684C204.084 167.753 204.001 167.836 203.905 167.932C203.822 168.029 203.74 168.111 203.657 168.18C203.451 168.345 203.313 168.62 203.244 169.006C203.217 169.226 203.155 169.604 203.058 170.141C202.962 170.664 202.893 171.098 202.852 171.442C202.824 171.635 202.714 171.724 202.521 171.71C202.411 171.71 201.331 171.71 199.28 171.71C199.225 171.71 199.197 171.704 199.197 171.69C199.184 171.69 199.17 171.676 199.156 171.648C199.129 171.635 199.129 171.6 199.156 171.545C199.376 170.458 199.858 167.925 200.601 163.947C201.358 159.956 201.778 157.588 201.861 156.845C201.888 156.721 201.957 156.659 202.067 156.659C202.728 156.659 203.464 156.653 204.276 156.639C205.116 156.639 205.55 156.673 205.577 156.742C205.591 156.756 205.591 156.797 205.577 156.866H205.556C204.552 161.945 204.063 164.553 204.091 164.691C204.146 164.663 204.256 164.567 204.421 164.402C204.586 164.223 204.799 163.982 205.061 163.679C205.336 163.376 205.55 163.149 205.701 162.998C205.784 162.915 205.914 162.784 206.093 162.605C206.286 162.413 206.444 162.248 206.568 162.11C206.706 161.959 206.83 161.814 206.94 161.676C207.132 161.429 207.428 161.305 207.827 161.305C208.24 161.319 208.626 161.325 208.984 161.325C209.355 161.325 209.699 161.325 210.016 161.325C210.333 161.325 210.539 161.325 210.635 161.325C210.58 161.422 210.553 161.477 210.553 161.491C209.81 162.234 209.039 162.984 208.24 163.741C207.772 164.181 207.552 164.429 207.58 164.484C207.58 164.498 207.614 164.519 207.683 164.546C207.711 164.56 207.738 164.574 207.766 164.587C208.123 164.739 208.399 164.994 208.591 165.351C208.798 165.696 208.908 166.074 208.922 166.487C208.922 166.611 208.922 166.762 208.922 166.941C208.922 167.106 208.922 167.251 208.922 167.375C208.922 167.485 208.922 167.616 208.922 167.767C208.922 167.918 208.922 168.042 208.922 168.139C208.936 168.235 208.949 168.345 208.963 168.469C208.991 168.579 209.018 168.662 209.046 168.717C209.087 168.758 209.128 168.806 209.169 168.861C209.225 168.916 209.286 168.937 209.355 168.923C209.438 168.909 209.527 168.896 209.624 168.882C209.858 168.799 210.078 168.682 210.284 168.531C210.491 168.366 210.656 168.207 210.78 168.056C210.918 167.891 211.035 167.739 211.131 167.602C211.241 167.464 211.33 167.361 211.399 167.292C211.468 167.223 211.53 167.203 211.585 167.23C211.668 167.285 211.819 167.388 212.039 167.54ZM203.657 160.933C203.657 160.919 203.65 160.912 203.636 160.912C203.595 160.871 203.554 160.878 203.512 160.933C203.512 160.933 203.533 160.961 203.574 161.016C203.602 160.988 203.629 160.961 203.657 160.933ZM203.306 162.585C203.265 162.64 203.258 162.688 203.285 162.729C203.299 162.716 203.313 162.702 203.327 162.688C203.34 162.661 203.354 162.633 203.368 162.605C203.327 162.592 203.306 162.585 203.306 162.585ZM202.769 158.992C202.755 158.992 202.742 159.006 202.728 159.034C202.728 159.047 202.728 159.061 202.728 159.075C202.728 159.075 202.755 159.096 202.811 159.137C202.838 159.096 202.872 159.061 202.914 159.034C202.817 159.006 202.769 158.992 202.769 158.992ZM202.872 159.736C202.872 159.763 202.852 159.798 202.811 159.839C202.769 159.88 202.742 159.921 202.728 159.963C202.728 159.977 202.742 159.983 202.769 159.983C202.989 159.901 203.148 159.825 203.244 159.756C203.161 159.674 203.113 159.632 203.1 159.632C202.948 159.577 202.872 159.612 202.872 159.736ZM202.542 158.497C202.515 158.524 202.508 158.552 202.521 158.579C202.549 158.566 202.556 158.538 202.542 158.497ZM202.356 160.623C202.246 160.72 202.191 160.768 202.191 160.768C202.191 160.768 202.239 160.844 202.336 160.995C202.349 160.981 202.37 160.961 202.398 160.933C202.439 160.892 202.466 160.857 202.48 160.83C202.411 160.706 202.37 160.637 202.356 160.623ZM202.274 162.44C202.287 162.44 202.294 162.433 202.294 162.42C202.294 162.42 202.294 162.413 202.294 162.399C202.281 162.413 202.274 162.42 202.274 162.42V162.44ZM202.294 164.175C202.281 164.161 202.274 164.154 202.274 164.154C202.274 164.154 202.267 164.161 202.253 164.175C202.267 164.175 202.274 164.181 202.274 164.195C202.274 164.195 202.281 164.195 202.294 164.195C202.294 164.181 202.294 164.175 202.294 164.175ZM202.15 162.791C202.136 162.888 202.129 162.936 202.129 162.936C202.157 162.853 202.164 162.805 202.15 162.791ZM202.129 162.956C202.047 163.149 201.998 163.259 201.985 163.287C201.985 163.301 201.992 163.349 202.005 163.431C202.129 163.404 202.191 163.383 202.191 163.369C202.205 163.356 202.184 163.218 202.129 162.956ZM201.778 163.535C201.778 163.535 201.771 163.535 201.758 163.535C201.758 163.548 201.764 163.555 201.778 163.555H201.799C201.785 163.541 201.778 163.535 201.778 163.535ZM200.684 166.982C200.739 166.914 200.767 166.879 200.767 166.879C200.753 166.865 200.718 166.824 200.663 166.755C200.622 166.824 200.601 166.865 200.601 166.879C200.601 166.879 200.629 166.914 200.684 166.982ZM201.014 169.419C201.042 169.391 201.042 169.364 201.014 169.336C201.001 169.364 201.001 169.391 201.014 169.419ZM201.386 165.64C201.262 165.572 201.193 165.537 201.179 165.537C201.179 165.537 201.159 165.565 201.118 165.62L201.345 165.764C201.345 165.751 201.358 165.709 201.386 165.64ZM201.407 166.693C201.338 166.652 201.303 166.631 201.303 166.631C201.276 166.645 201.262 166.673 201.262 166.714C201.262 166.742 201.276 166.755 201.303 166.755C201.303 166.755 201.338 166.735 201.407 166.693ZM201.138 170.492C201.166 170.506 201.193 170.499 201.221 170.472C201.179 170.458 201.152 170.465 201.138 170.492ZM201.303 166.239C201.262 166.253 201.241 166.26 201.241 166.26C201.283 166.342 201.303 166.384 201.303 166.384C201.317 166.384 201.338 166.384 201.365 166.384C201.352 166.37 201.338 166.349 201.324 166.322C201.324 166.28 201.317 166.253 201.303 166.239ZM201.324 168.469C201.393 168.414 201.427 168.386 201.427 168.386C201.427 168.373 201.4 168.324 201.345 168.242C201.331 168.256 201.31 168.276 201.283 168.304C201.255 168.331 201.255 168.373 201.283 168.428C201.296 168.455 201.31 168.469 201.324 168.469ZM202.088 169.501C202.102 169.487 202.129 169.453 202.17 169.398C202.157 169.398 202.143 169.391 202.129 169.377C202.115 169.364 202.095 169.35 202.067 169.336C202.053 169.322 202.047 169.309 202.047 169.295C202.019 169.309 201.985 169.322 201.943 169.336C201.957 169.35 201.971 169.371 201.985 169.398C202.012 169.412 202.033 169.432 202.047 169.46C202.06 169.474 202.074 169.487 202.088 169.501ZM201.923 168.841C201.936 168.73 201.957 168.655 201.985 168.613C202.012 168.558 202.047 168.524 202.088 168.51C202.143 168.496 202.184 168.476 202.212 168.448C202.17 168.435 202.122 168.435 202.067 168.448C202.012 168.448 201.971 168.441 201.943 168.428C201.875 168.386 201.826 168.386 201.799 168.428C201.785 168.455 201.785 168.496 201.799 168.552C201.854 168.717 201.792 168.834 201.613 168.903C201.613 168.903 201.586 168.93 201.53 168.985C201.558 168.985 201.613 168.999 201.696 169.026C201.709 169.026 201.737 169.013 201.778 168.985C201.819 168.958 201.854 168.937 201.881 168.923C201.909 168.896 201.923 168.868 201.923 168.841ZM202.79 167.23C202.996 167.134 203.01 167.01 202.831 166.859C202.831 166.845 202.769 166.755 202.645 166.59C202.7 166.549 202.728 166.528 202.728 166.528C202.728 166.514 202.714 166.494 202.687 166.466C202.659 166.425 202.645 166.397 202.645 166.384C202.59 166.425 202.542 166.453 202.501 166.466C202.46 166.48 202.418 166.48 202.377 166.466C202.349 166.439 202.308 166.411 202.253 166.384C202.212 166.356 202.17 166.342 202.129 166.342C202.06 166.329 202.019 166.28 202.005 166.198C202.005 166.129 202.06 166.06 202.17 165.991C202.281 165.909 202.384 165.902 202.48 165.971C202.48 165.971 202.549 165.936 202.687 165.868C202.632 165.785 202.577 165.716 202.521 165.661C202.48 165.606 202.446 165.572 202.418 165.558C202.404 165.544 202.384 165.51 202.356 165.455C202.329 165.4 202.301 165.317 202.274 165.207C202.26 165.097 202.26 165.021 202.274 164.98C202.287 164.925 202.301 164.89 202.315 164.877C202.343 164.849 202.343 164.815 202.315 164.773C202.287 164.732 202.226 164.67 202.129 164.587C202.074 164.546 202.019 164.601 201.964 164.753L201.902 165.042C201.985 165.221 202.033 165.372 202.047 165.496C202.074 165.62 202.074 165.716 202.047 165.785C202.033 165.84 202.005 165.895 201.964 165.95C201.936 166.005 201.923 166.046 201.923 166.074C201.923 166.212 201.854 166.287 201.716 166.301C201.716 166.301 201.668 166.336 201.572 166.404C201.682 166.528 201.744 166.59 201.758 166.59C201.785 166.618 201.854 166.618 201.964 166.59C202.074 166.563 202.17 166.556 202.253 166.57C202.349 166.57 202.404 166.618 202.418 166.714C202.432 166.824 202.205 166.914 201.737 166.982C201.613 166.996 201.613 167.058 201.737 167.168L201.84 167.23C201.992 167.258 202.067 167.347 202.067 167.499C202.053 167.65 202.122 167.678 202.274 167.581C202.301 167.567 202.349 167.547 202.418 167.519C202.501 167.492 202.563 167.464 202.604 167.437C202.659 167.395 202.694 167.34 202.707 167.271C202.707 167.258 202.721 167.251 202.749 167.251C202.776 167.251 202.79 167.244 202.79 167.23ZM202.542 164.877C202.556 164.904 202.577 164.925 202.604 164.938C202.687 165.007 202.749 165.021 202.79 164.98C202.817 164.952 202.845 164.932 202.872 164.918C202.859 164.904 202.845 164.89 202.831 164.877C202.817 164.863 202.797 164.849 202.769 164.835C202.755 164.821 202.742 164.815 202.728 164.815C202.7 164.815 202.666 164.828 202.625 164.856C202.583 164.87 202.556 164.877 202.542 164.877ZM202.872 163.762C202.886 163.748 202.9 163.727 202.914 163.7C202.941 163.672 202.955 163.652 202.955 163.638C202.969 163.624 202.989 163.61 203.017 163.596C203.044 163.583 203.072 163.576 203.1 163.576C203.1 163.576 203.141 163.541 203.223 163.473C203.1 163.39 203.038 163.349 203.038 163.349C202.941 163.335 202.817 163.404 202.666 163.555C202.515 163.707 202.439 163.837 202.439 163.947C202.439 163.947 202.466 164.016 202.521 164.154C202.742 163.92 202.859 163.789 202.872 163.762ZM203.12 166.879C203.161 166.728 203.182 166.652 203.182 166.652C203.196 166.638 203.189 166.611 203.161 166.57C203.079 166.666 203.038 166.721 203.038 166.735C203.038 166.748 203.065 166.797 203.12 166.879ZM202.996 166.177C203.01 166.191 203.031 166.212 203.058 166.239C203.086 166.28 203.12 166.287 203.161 166.26C203.189 166.232 203.21 166.212 203.223 166.198C203.155 166.143 203.113 166.115 203.1 166.115C203.1 166.115 203.065 166.136 202.996 166.177ZM203.203 164.835C203.217 164.849 203.23 164.863 203.244 164.877C203.258 164.904 203.285 164.897 203.327 164.856L203.368 164.835C203.34 164.808 203.32 164.78 203.306 164.753C203.278 164.78 203.244 164.808 203.203 164.835ZM203.843 165.785C203.843 165.785 203.843 165.778 203.843 165.764C203.857 165.751 203.863 165.744 203.863 165.744C203.85 165.73 203.829 165.716 203.802 165.702C203.774 165.675 203.753 165.654 203.74 165.64C203.726 165.627 203.712 165.606 203.698 165.579C203.698 165.537 203.705 165.503 203.719 165.475C203.499 165.434 203.382 165.406 203.368 165.393C203.354 165.434 203.347 165.455 203.347 165.455C203.361 165.482 203.375 165.517 203.389 165.558C203.43 165.64 203.464 165.689 203.492 165.702C203.519 165.716 203.595 165.737 203.719 165.764C203.774 165.764 203.815 165.771 203.843 165.785ZM204.008 166.301C204.036 166.315 204.049 166.322 204.049 166.322C204.049 166.322 204.049 166.315 204.049 166.301C204.063 166.274 204.07 166.253 204.07 166.239C204.056 166.253 204.042 166.267 204.029 166.28C204.029 166.294 204.022 166.301 204.008 166.301ZM204.07 166.219C204.18 166.232 204.242 166.198 204.256 166.115C204.242 166.033 204.208 165.985 204.152 165.971C204.084 165.985 204.056 166.067 204.07 166.219ZM204.875 165.764C204.875 165.764 204.875 165.757 204.875 165.744C204.875 165.744 204.868 165.737 204.854 165.723V165.744C204.854 165.744 204.854 165.751 204.854 165.764C204.868 165.764 204.875 165.764 204.875 165.764ZM205.164 165.826C205.205 165.881 205.226 165.909 205.226 165.909C205.24 165.909 205.316 165.895 205.453 165.868C205.329 165.799 205.261 165.764 205.247 165.764C205.247 165.751 205.219 165.771 205.164 165.826ZM206.547 163.72C206.534 163.762 206.541 163.789 206.568 163.803L206.589 163.762C206.589 163.762 206.582 163.762 206.568 163.762C206.568 163.748 206.561 163.734 206.547 163.72ZM205.845 166.322C205.887 166.239 205.901 166.17 205.887 166.115C205.818 166.184 205.784 166.225 205.784 166.239C205.784 166.239 205.804 166.267 205.845 166.322ZM205.866 165.682C205.894 165.709 205.907 165.723 205.907 165.723C205.921 165.723 205.969 165.696 206.052 165.64C206.024 165.599 206.004 165.572 205.99 165.558L205.866 165.682ZM206.052 167.21C206.066 167.21 206.079 167.196 206.093 167.168C206.066 167.127 206.031 167.113 205.99 167.127C206.004 167.141 206.024 167.168 206.052 167.21ZM206.052 165.372C206.066 165.4 206.093 165.406 206.135 165.393C206.107 165.365 206.079 165.358 206.052 165.372ZM206.589 166.425L206.692 166.508C206.857 166.37 206.947 166.28 206.96 166.239C206.96 166.212 206.94 166.17 206.898 166.115C206.857 166.06 206.809 166.019 206.754 165.991C206.74 165.991 206.602 165.964 206.341 165.909C206.286 165.95 206.252 165.978 206.238 165.991C206.238 165.991 206.245 166.005 206.258 166.033C206.272 166.06 206.279 166.074 206.279 166.074C206.334 166.088 206.375 166.108 206.403 166.136C206.444 166.163 206.472 166.191 206.486 166.219C206.499 166.232 206.52 166.274 206.547 166.342C206.575 166.397 206.589 166.425 206.589 166.425ZM207.022 167.622C207.022 167.622 207.05 167.602 207.105 167.561C206.953 167.464 206.836 167.402 206.754 167.375C206.754 167.402 206.754 167.437 206.754 167.478C206.768 167.505 206.775 167.526 206.775 167.54C206.788 167.54 206.809 167.547 206.836 167.561C206.878 167.574 206.94 167.595 207.022 167.622ZM207.187 166.528C207.215 166.473 207.215 166.411 207.187 166.342C207.132 166.384 207.105 166.404 207.105 166.404C207.105 166.404 207.132 166.446 207.187 166.528ZM207.353 165.475C207.38 165.393 207.394 165.351 207.394 165.351C207.394 165.351 207.366 165.338 207.311 165.31C207.311 165.393 207.325 165.448 207.353 165.475ZM207.951 169.088C207.951 169.088 207.944 169.095 207.931 169.109C207.944 169.109 207.958 169.116 207.972 169.13C207.972 169.116 207.965 169.102 207.951 169.088ZM207.993 169.171H208.013L208.034 169.15C208.02 169.15 208.006 169.15 207.993 169.15C207.993 169.137 207.993 169.13 207.993 169.13C207.993 169.13 207.993 169.137 207.993 169.15C207.993 169.164 207.993 169.171 207.993 169.171ZM202.336 167.148C202.336 167.148 202.343 167.141 202.356 167.127C202.384 167.113 202.404 167.106 202.418 167.106C202.446 167.148 202.466 167.175 202.48 167.189C202.411 167.189 202.363 167.175 202.336 167.148Z" fill="white"/>
<path d="M177.809 134.394C177.905 134.394 177.954 134.421 177.954 134.476C177.954 134.518 177.919 134.669 177.85 134.931C177.63 135.839 177.424 136.851 177.231 137.966C177.217 138.048 177.169 138.096 177.086 138.11C177.086 138.11 177.073 138.117 177.045 138.131C177.018 138.131 176.976 138.138 176.921 138.152C176.88 138.152 176.825 138.158 176.756 138.172C176.687 138.186 176.612 138.2 176.529 138.213C176.446 138.227 176.357 138.241 176.261 138.255C176.178 138.255 176.082 138.262 175.972 138.275C175.875 138.275 175.772 138.275 175.662 138.275C175.552 138.275 175.435 138.275 175.311 138.275C175.187 138.262 175.07 138.248 174.96 138.234C174.519 138.193 174.106 138.131 173.721 138.048C173.349 137.966 173.088 137.904 172.937 137.862C172.785 137.807 172.613 137.745 172.42 137.677C172.269 137.608 172.166 137.58 172.111 137.594C172.056 137.594 172.021 137.642 172.007 137.739C171.746 139.032 171.436 140.643 171.078 142.57C170.721 144.483 170.425 146.08 170.191 147.36C169.97 148.64 169.86 149.287 169.86 149.3V149.321C169.874 149.459 169.812 149.534 169.674 149.548C169.551 149.576 169.083 149.589 168.271 149.589C167.555 149.576 166.942 149.569 166.433 149.569C166.282 149.569 166.206 149.555 166.206 149.527C166.178 149.445 166.357 148.426 166.743 146.472C166.88 145.784 167.011 145.109 167.135 144.449C167.63 141.902 167.981 140.037 168.188 138.853C168.394 137.656 168.525 136.926 168.58 136.665C168.594 136.569 168.587 136.507 168.56 136.479C168.546 136.438 168.491 136.41 168.394 136.397C167.142 136.355 166.172 136.741 165.483 137.553C165.359 137.69 165.18 138.021 164.947 138.544C164.891 138.681 164.94 138.812 165.091 138.936C165.394 139.184 165.587 139.452 165.669 139.741C165.752 140.017 165.738 140.34 165.628 140.712C165.545 141.014 165.359 141.255 165.07 141.434C164.781 141.613 164.472 141.703 164.141 141.703C163.811 141.703 163.501 141.579 163.212 141.331C162.923 141.069 162.751 140.705 162.696 140.237C162.613 139.411 162.607 138.785 162.675 138.358C162.758 137.931 162.923 137.505 163.171 137.078C163.639 136.321 164.293 135.722 165.132 135.282C165.972 134.827 166.901 134.532 167.92 134.394C168.828 134.27 169.668 134.222 170.438 134.249C171.209 134.277 171.897 134.318 172.503 134.373C173.122 134.415 173.453 134.421 173.494 134.394C173.577 134.366 173.638 134.373 173.68 134.415C173.735 134.456 173.79 134.483 173.845 134.497C173.914 134.497 173.989 134.49 174.072 134.476C174.155 134.463 174.217 134.456 174.258 134.456C175.469 134.483 176.164 134.504 176.343 134.518C176.536 134.518 176.735 134.504 176.942 134.476C177.162 134.435 177.451 134.408 177.809 134.394ZM170.893 136.665C170.893 136.651 170.886 136.631 170.872 136.603C170.858 136.603 170.838 136.61 170.81 136.624C170.796 136.637 170.782 136.651 170.769 136.665C170.782 136.665 170.803 136.665 170.831 136.665C170.858 136.665 170.879 136.665 170.893 136.665ZM170.129 137.677C170.06 137.745 170.019 137.794 170.005 137.821C170.019 137.849 170.039 137.883 170.067 137.924C170.094 137.952 170.115 137.973 170.129 137.986C170.197 137.89 170.225 137.835 170.211 137.821C170.211 137.821 170.184 137.773 170.129 137.677ZM169.902 140.65C169.847 140.705 169.812 140.739 169.798 140.753C169.798 140.753 169.805 140.767 169.819 140.794C169.833 140.808 169.847 140.815 169.86 140.815C169.86 140.815 169.888 140.794 169.943 140.753C169.929 140.725 169.915 140.691 169.902 140.65ZM168.436 142.033C168.436 142.033 168.429 142.033 168.415 142.033C168.429 142.047 168.436 142.054 168.436 142.054C168.449 142.054 168.456 142.054 168.456 142.054L168.436 142.033ZM167.878 146.74C167.892 146.726 167.899 146.72 167.899 146.72L167.878 146.699C167.864 146.713 167.858 146.72 167.858 146.72C167.871 146.72 167.878 146.726 167.878 146.74ZM168.064 145.852C168.078 145.811 168.078 145.777 168.064 145.749C168.05 145.777 168.05 145.811 168.064 145.852ZM168.291 148.309C168.332 148.351 168.353 148.371 168.353 148.371C168.353 148.371 168.408 148.351 168.518 148.309C168.463 148.241 168.429 148.206 168.415 148.206C168.415 148.206 168.374 148.241 168.291 148.309ZM168.518 143.519C168.56 143.492 168.58 143.478 168.58 143.478C168.58 143.478 168.56 143.451 168.518 143.396C168.491 143.437 168.477 143.458 168.477 143.458C168.477 143.458 168.491 143.478 168.518 143.519ZM168.58 142.116C168.663 142.171 168.704 142.198 168.704 142.198C168.704 142.198 168.725 142.177 168.766 142.136C168.752 142.122 168.732 142.109 168.704 142.095C168.69 142.081 168.677 142.067 168.663 142.054C168.635 142.067 168.608 142.088 168.58 142.116ZM169.344 144.82C169.358 144.806 169.358 144.786 169.344 144.758C169.344 144.731 169.344 144.71 169.344 144.696C169.289 144.683 169.138 144.703 168.89 144.758C168.986 144.8 169.034 144.82 169.034 144.82C169.048 144.82 169.124 144.827 169.262 144.841C169.317 144.827 169.344 144.82 169.344 144.82ZM168.931 141.971C168.959 141.999 168.986 142.005 169.014 141.992C169 141.964 168.972 141.957 168.931 141.971ZM169.138 143.788C169.124 143.829 169.124 143.864 169.138 143.891C169.151 143.864 169.151 143.829 169.138 143.788ZM169.117 141.393C169.2 141.393 169.255 141.393 169.282 141.393C169.323 141.379 169.344 141.372 169.344 141.372C169.344 141.359 169.344 141.338 169.344 141.31C169.358 141.269 169.372 141.235 169.385 141.207C169.358 141.193 169.33 141.18 169.303 141.166C169.289 141.152 169.275 141.145 169.262 141.145C169.262 141.145 169.255 141.145 169.241 141.145C169.227 141.131 169.213 141.131 169.2 141.145C169.186 141.145 169.165 141.145 169.138 141.145C169.124 141.145 169.089 141.152 169.034 141.166C168.979 141.166 168.924 141.166 168.869 141.166C168.897 141.221 168.979 141.297 169.117 141.393ZM169.509 138.131C169.523 138.158 169.551 138.165 169.592 138.152C169.564 138.124 169.537 138.117 169.509 138.131ZM169.571 143.643C169.571 143.643 169.578 143.63 169.592 143.602H169.571C169.557 143.616 169.557 143.63 169.571 143.643ZM169.778 141.517C169.833 141.448 169.86 141.414 169.86 141.414C169.86 141.414 169.84 141.331 169.798 141.166C169.73 141.248 169.695 141.29 169.695 141.29C169.695 141.29 169.723 141.365 169.778 141.517ZM169.84 143.685C169.936 143.74 169.984 143.767 169.984 143.767C169.998 143.767 170.019 143.753 170.046 143.726C170.019 143.698 169.984 143.664 169.943 143.623C169.929 143.636 169.908 143.65 169.881 143.664C169.853 143.678 169.84 143.685 169.84 143.685ZM170.335 139.886C170.349 139.886 170.37 139.879 170.397 139.865C170.438 139.851 170.466 139.838 170.48 139.824C170.411 139.714 170.363 139.652 170.335 139.638C170.308 139.624 170.211 139.617 170.046 139.617C170.142 139.769 170.191 139.851 170.191 139.865C170.204 139.865 170.253 139.872 170.335 139.886ZM170.686 136.252C170.617 136.197 170.576 136.169 170.562 136.169C170.562 136.156 170.542 136.163 170.5 136.19C170.555 136.245 170.583 136.273 170.583 136.273C170.597 136.273 170.631 136.266 170.686 136.252ZM170.562 137.264C170.604 137.236 170.638 137.216 170.665 137.202C170.652 137.188 170.638 137.174 170.624 137.16C170.583 137.188 170.562 137.222 170.562 137.264ZM170.645 136.686C170.645 136.686 170.645 136.693 170.645 136.706C170.659 136.706 170.665 136.713 170.665 136.727C170.693 136.699 170.714 136.679 170.727 136.665C170.714 136.665 170.686 136.672 170.645 136.686ZM170.686 137.388C170.7 137.401 170.721 137.422 170.748 137.45C170.789 137.477 170.838 137.463 170.893 137.408C170.92 137.394 170.941 137.381 170.955 137.367C170.913 137.326 170.872 137.284 170.831 137.243C170.789 137.284 170.741 137.333 170.686 137.388ZM171.656 135.323C171.656 135.309 171.656 135.302 171.656 135.302C171.67 135.289 171.677 135.282 171.677 135.282C171.677 135.282 171.67 135.275 171.656 135.261C171.656 135.247 171.656 135.24 171.656 135.24C171.643 135.254 171.643 135.282 171.656 135.323ZM172.379 137.305C172.42 137.333 172.462 137.333 172.503 137.305C172.489 137.305 172.475 137.298 172.462 137.284C172.448 137.271 172.434 137.257 172.42 137.243C172.42 137.257 172.413 137.271 172.4 137.284C172.4 137.298 172.393 137.305 172.379 137.305ZM173.267 134.704C173.294 134.69 173.315 134.676 173.329 134.662C173.315 134.621 173.308 134.6 173.308 134.6C173.253 134.628 173.226 134.649 173.226 134.662C173.226 134.662 173.239 134.676 173.267 134.704ZM173.473 135.922C173.501 135.949 173.528 135.956 173.556 135.942C173.542 135.915 173.515 135.908 173.473 135.922ZM174.526 136.087C174.526 136.059 174.526 136.039 174.526 136.025C174.526 135.984 174.506 135.935 174.464 135.88L174.423 135.798C174.396 135.825 174.368 135.86 174.34 135.901C174.313 135.929 174.292 135.949 174.279 135.963C174.279 135.963 174.279 135.984 174.279 136.025C174.292 136.052 174.306 136.087 174.32 136.128C174.347 136.156 174.389 136.211 174.444 136.293C174.444 136.293 174.457 136.293 174.485 136.293C174.513 136.28 174.526 136.273 174.526 136.273C174.526 136.245 174.526 136.183 174.526 136.087ZM174.795 135.633C174.822 135.605 174.829 135.578 174.815 135.55C174.788 135.564 174.781 135.591 174.795 135.633ZM175.476 136.562C175.517 136.41 175.524 136.307 175.497 136.252C175.442 136.376 175.414 136.445 175.414 136.459C175.414 136.459 175.435 136.493 175.476 136.562ZM176.116 135.942C176.13 135.942 176.137 135.942 176.137 135.942C176.15 135.929 176.157 135.922 176.157 135.922C176.157 135.908 176.15 135.894 176.137 135.88C176.137 135.88 176.137 135.874 176.137 135.86C176.109 135.887 176.102 135.915 176.116 135.942ZM176.901 137.264C176.914 137.222 176.921 137.202 176.921 137.202C176.907 137.202 176.894 137.202 176.88 137.202C176.866 137.188 176.859 137.174 176.859 137.16C176.832 137.202 176.818 137.222 176.818 137.222C176.818 137.222 176.846 137.236 176.901 137.264ZM181.993 140.567C182.02 140.622 181.999 140.684 181.931 140.753C181.862 140.822 181.655 141.001 181.311 141.29C181.105 141.469 180.94 141.613 180.816 141.723C180.692 141.82 180.547 141.943 180.382 142.095C180.121 142.315 179.955 142.439 179.887 142.467C179.832 142.494 179.77 142.473 179.701 142.405C179.66 142.363 179.618 142.322 179.577 142.281C179.536 142.239 179.481 142.205 179.412 142.177C179.343 142.15 179.288 142.136 179.247 142.136C179.219 142.122 179.157 142.102 179.061 142.074C178.964 142.047 178.909 142.033 178.896 142.033C178.304 141.868 177.712 142.067 177.12 142.632C177.106 142.645 177.079 142.673 177.038 142.714C176.666 143.072 176.418 143.43 176.294 143.788C176.184 144.146 175.971 145.24 175.654 147.071C175.558 147.594 175.482 148.007 175.427 148.309C175.4 148.447 175.379 148.585 175.365 148.722C175.351 148.86 175.338 148.97 175.324 149.053C175.31 149.121 175.296 149.19 175.283 149.259C175.283 149.328 175.276 149.383 175.262 149.424C175.262 149.452 175.255 149.479 175.241 149.507C175.228 149.534 175.207 149.548 175.179 149.548C175.152 149.562 175.124 149.569 175.097 149.569C175.069 149.583 175.021 149.589 174.952 149.589C172.778 149.589 171.663 149.583 171.608 149.569C171.58 149.555 171.573 149.5 171.587 149.404C171.587 149.39 171.649 149.08 171.773 148.475C171.897 147.869 172.048 147.112 172.227 146.203C172.406 145.295 172.585 144.38 172.764 143.458C172.943 142.522 173.101 141.682 173.239 140.939C173.376 140.182 173.459 139.7 173.486 139.493C173.5 139.342 173.521 139.26 173.548 139.246C173.576 139.218 173.665 139.204 173.817 139.204C174.009 139.204 174.505 139.204 175.303 139.204C176.102 139.204 176.659 139.204 176.976 139.204C177.099 139.204 177.168 139.239 177.182 139.308C177.196 139.363 177.175 139.507 177.12 139.741C177.079 139.934 177.044 140.092 177.017 140.216C177.017 140.216 177.024 140.251 177.038 140.319C177.12 140.292 177.333 140.168 177.678 139.948C178.022 139.727 178.4 139.542 178.813 139.39C179.226 139.239 179.653 139.177 180.093 139.204C181.029 139.26 181.662 139.714 181.993 140.567ZM173.858 145.852C173.844 145.852 173.83 145.846 173.817 145.832C173.789 145.818 173.769 145.818 173.755 145.832C173.741 145.846 173.727 145.859 173.714 145.873C173.755 145.914 173.775 145.935 173.775 145.935C173.789 145.921 173.817 145.894 173.858 145.852ZM173.631 145.192C173.631 145.192 173.624 145.199 173.61 145.212C173.624 145.212 173.631 145.219 173.631 145.233C173.645 145.219 173.652 145.212 173.652 145.212C173.652 145.212 173.645 145.206 173.631 145.192ZM173.548 147.38C173.7 147.463 173.775 147.504 173.775 147.504C173.775 147.504 173.824 147.463 173.92 147.38C173.837 147.339 173.775 147.305 173.734 147.277C173.693 147.305 173.631 147.339 173.548 147.38ZM173.879 143.519C173.934 143.561 173.961 143.581 173.961 143.581C173.961 143.581 174.003 143.561 174.085 143.519C173.989 143.464 173.941 143.437 173.941 143.437C173.941 143.437 173.92 143.464 173.879 143.519ZM174.436 142.425C174.464 142.453 174.491 142.46 174.519 142.446C174.505 142.418 174.477 142.411 174.436 142.425ZM175.262 144.201C175.289 144.215 175.317 144.215 175.345 144.201C175.317 144.187 175.289 144.187 175.262 144.201ZM175.406 142.59C175.406 142.577 175.406 142.563 175.406 142.549H175.386C175.386 142.563 175.393 142.577 175.406 142.59ZM175.406 141.001C175.42 140.973 175.42 140.939 175.406 140.897C175.379 140.939 175.379 140.973 175.406 141.001ZM175.53 141.063C175.53 141.049 175.53 141.042 175.53 141.042C175.544 141.028 175.551 141.014 175.551 141.001C175.551 141.001 175.544 141.001 175.53 141.001C175.53 140.987 175.523 140.98 175.51 140.98C175.496 141.008 175.503 141.035 175.53 141.063ZM175.654 142.012C175.668 141.999 175.675 141.992 175.675 141.992C175.661 141.992 175.654 141.985 175.654 141.971L175.634 141.992C175.647 142.005 175.654 142.012 175.654 142.012ZM176.191 142.033C176.191 142.033 176.177 141.992 176.15 141.909C175.943 141.978 175.813 142.04 175.757 142.095C175.826 142.122 175.881 142.122 175.923 142.095C175.923 142.095 175.936 142.109 175.964 142.136C176.005 142.15 176.033 142.157 176.047 142.157C176.06 142.157 176.081 142.15 176.108 142.136C176.136 142.109 176.164 142.074 176.191 142.033ZM194.922 145.687C195.074 145.77 195.101 145.894 195.005 146.059C193.945 147.903 192.589 149.032 190.938 149.445C190.208 149.624 189.561 149.576 188.997 149.3C188.859 149.232 188.736 149.149 188.625 149.053C188.515 148.956 188.44 148.874 188.398 148.805C188.357 148.722 188.309 148.653 188.254 148.598C188.213 148.53 188.178 148.488 188.151 148.475C188.123 148.461 188.082 148.475 188.027 148.516C187.228 149.245 186.341 149.631 185.363 149.672C184.386 149.713 183.526 149.349 182.783 148.578C182.108 147.821 181.723 146.692 181.626 145.192C181.613 144.834 181.64 144.428 181.709 143.974C181.792 143.506 181.936 143.003 182.143 142.467C182.349 141.916 182.604 141.434 182.906 141.021C183.347 140.402 183.904 139.934 184.579 139.617C185.267 139.287 185.948 139.129 186.623 139.143C187.297 139.156 187.91 139.308 188.46 139.597C188.543 139.652 188.598 139.638 188.625 139.555L188.646 139.514L188.667 139.473C188.681 139.445 188.687 139.411 188.687 139.37C188.687 139.315 188.687 139.273 188.687 139.246C188.701 139.218 188.715 139.198 188.729 139.184C188.77 139.156 189.906 139.149 192.135 139.163C192.273 139.163 192.349 139.177 192.362 139.204C192.376 139.218 192.369 139.294 192.342 139.432C192.328 139.5 192.273 139.734 192.177 140.134C192.094 140.533 192.018 140.884 191.949 141.186C191.881 141.489 191.798 141.882 191.702 142.363C191.605 142.831 191.53 143.258 191.475 143.643C191.433 144.015 191.392 144.4 191.351 144.8C191.309 145.185 191.296 145.522 191.309 145.811C191.323 146.1 191.371 146.32 191.454 146.472C191.55 146.706 191.709 146.795 191.929 146.74C192.163 146.685 192.383 146.582 192.589 146.431C192.81 146.279 193.016 146.093 193.209 145.873C193.319 145.735 193.422 145.598 193.519 145.46C193.615 145.323 193.684 145.233 193.725 145.192C193.766 145.151 193.801 145.109 193.828 145.068C193.856 145.013 193.897 145.006 193.952 145.047C194.007 145.089 194.062 145.13 194.117 145.171C194.172 145.199 194.276 145.268 194.427 145.378C194.578 145.474 194.744 145.577 194.922 145.687ZM182.473 145.997C182.487 145.997 182.494 145.99 182.494 145.976C182.48 145.976 182.473 145.969 182.473 145.956L182.452 145.976C182.452 145.976 182.459 145.983 182.473 145.997ZM183.815 145.832L183.753 145.77C183.753 145.784 183.712 145.811 183.629 145.852C183.657 145.88 183.691 145.908 183.732 145.935C183.787 145.88 183.815 145.846 183.815 145.832ZM183.732 141.826C183.705 141.84 183.698 141.868 183.712 141.909C183.725 141.895 183.732 141.888 183.732 141.888C183.746 141.875 183.753 141.868 183.753 141.868V141.847L183.732 141.826ZM183.34 143.313C183.257 143.396 183.216 143.458 183.216 143.499C183.23 143.526 183.333 143.671 183.526 143.932C183.526 143.932 183.56 143.926 183.629 143.912C183.602 143.843 183.574 143.76 183.547 143.664C183.478 143.485 183.43 143.389 183.402 143.375L183.34 143.313ZM182.968 144.655C182.982 144.669 183.003 144.689 183.03 144.717C183.072 144.758 183.113 144.765 183.154 144.738C183.196 144.724 183.23 144.71 183.257 144.696C183.134 144.655 183.037 144.641 182.968 144.655ZM183.381 144.387C183.436 144.428 183.464 144.449 183.464 144.449C183.478 144.449 183.54 144.442 183.65 144.428C183.553 144.359 183.498 144.325 183.485 144.325C183.485 144.325 183.45 144.345 183.381 144.387ZM183.65 145.151C183.581 145.109 183.533 145.095 183.505 145.109C183.547 145.164 183.567 145.192 183.567 145.192C183.567 145.192 183.595 145.178 183.65 145.151ZM183.505 147.36C183.547 147.373 183.588 147.387 183.629 147.401C183.712 147.456 183.787 147.456 183.856 147.401C183.87 147.387 183.877 147.38 183.877 147.38C183.891 147.367 183.904 147.353 183.918 147.339C183.946 147.311 183.966 147.291 183.98 147.277C183.856 147.25 183.719 147.25 183.567 147.277C183.567 147.277 183.547 147.305 183.505 147.36ZM183.918 143.54C183.973 143.499 184.001 143.478 184.001 143.478C184.001 143.464 183.98 143.402 183.939 143.292C183.911 143.32 183.891 143.347 183.877 143.375C183.836 143.416 183.836 143.458 183.877 143.499C183.891 143.513 183.904 143.526 183.918 143.54ZM184.868 148.02C184.868 148.02 184.868 148.013 184.868 148H184.889C184.875 148 184.868 147.993 184.868 147.979C184.868 147.979 184.861 147.986 184.847 148C184.847 148 184.847 148.007 184.847 148.02C184.861 148.02 184.868 148.02 184.868 148.02ZM187.985 143.953C187.999 143.939 188.054 143.526 188.151 142.714C188.137 142.714 188.123 142.714 188.109 142.714C188.109 142.701 188.109 142.68 188.109 142.652C188.109 142.501 188.102 142.391 188.089 142.322C188.089 142.239 188.054 142.15 187.985 142.054C187.93 141.957 187.834 141.895 187.696 141.868C186.953 141.716 186.382 141.875 185.983 142.343C185.597 142.811 185.329 143.492 185.178 144.387C185.122 144.758 185.129 145.144 185.198 145.543C185.267 145.942 185.425 146.293 185.673 146.596C185.935 146.885 186.272 146.988 186.685 146.905C186.96 146.85 187.208 146.713 187.428 146.493C187.648 146.272 187.786 146.025 187.841 145.749C187.868 145.667 187.882 145.536 187.882 145.357C187.896 145.178 187.91 144.958 187.923 144.696C187.951 144.421 187.972 144.173 187.985 143.953ZM188.708 140.526C188.722 140.512 188.729 140.505 188.729 140.505C188.729 140.505 188.722 140.498 188.708 140.485C188.708 140.485 188.701 140.491 188.687 140.505C188.687 140.519 188.694 140.526 188.708 140.526ZM188.77 145.976C188.784 146.018 188.791 146.045 188.791 146.059C188.804 146.059 188.825 146.045 188.853 146.018C188.839 145.99 188.832 145.969 188.832 145.956C188.818 145.956 188.804 145.963 188.791 145.976C188.777 145.976 188.77 145.976 188.77 145.976ZM190.36 140.257C190.332 140.23 190.305 140.223 190.277 140.237C190.291 140.264 190.318 140.271 190.36 140.257ZM189.864 142.549C189.947 142.563 190.043 142.528 190.153 142.446C190.263 142.35 190.318 142.26 190.318 142.177C190.181 141.999 190.098 141.909 190.071 141.909C190.043 141.895 189.995 141.937 189.926 142.033C189.926 142.047 189.912 142.088 189.885 142.157C189.857 142.212 189.837 142.253 189.823 142.281C189.809 142.308 189.775 142.336 189.72 142.363C189.678 142.377 189.63 142.377 189.575 142.363C189.575 142.363 189.555 142.37 189.513 142.384C189.541 142.439 189.555 142.467 189.555 142.467C189.692 142.522 189.795 142.549 189.864 142.549ZM189.926 144.098C189.912 144.084 189.899 144.084 189.885 144.098C189.899 144.098 189.912 144.104 189.926 144.118V144.098ZM190.071 141.166C189.947 141.221 189.844 141.324 189.761 141.476C189.678 141.627 189.582 141.696 189.472 141.682C189.458 141.682 189.444 141.737 189.431 141.847C189.431 141.847 189.444 141.861 189.472 141.888C189.623 141.806 189.699 141.765 189.699 141.765C189.809 141.765 189.885 141.737 189.926 141.682C189.981 141.627 190.022 141.551 190.05 141.455C190.078 141.359 190.105 141.297 190.133 141.269C190.16 141.214 190.16 141.18 190.133 141.166C190.119 141.152 190.098 141.152 190.071 141.166ZM189.389 140.794C189.362 140.877 189.382 140.952 189.451 141.021C189.52 141.076 189.61 141.104 189.72 141.104C189.802 141.063 189.844 141.042 189.844 141.042C189.857 141.028 189.85 140.994 189.823 140.939C189.795 140.884 189.761 140.835 189.72 140.794C189.678 140.753 189.658 140.732 189.658 140.732C189.479 140.76 189.389 140.78 189.389 140.794ZM189.1 141.434C189.073 141.462 189.066 141.489 189.08 141.517C189.093 141.503 189.107 141.496 189.121 141.496L189.1 141.455V141.434ZM189.059 147.36C189.059 147.511 189.093 147.594 189.162 147.607C189.204 147.621 189.231 147.594 189.245 147.525C189.259 147.497 189.259 147.47 189.245 147.442C189.245 147.428 189.217 147.318 189.162 147.112C189.093 147.263 189.059 147.346 189.059 147.36ZM189.245 145.729C189.231 145.591 189.245 145.467 189.286 145.357C189.272 145.302 189.245 145.24 189.204 145.171C189.19 145.24 189.155 145.35 189.1 145.501C189.059 145.653 189.025 145.77 188.997 145.852L189.038 145.956C189.121 145.928 189.176 145.914 189.204 145.914C189.245 145.901 189.265 145.894 189.265 145.894C189.279 145.88 189.279 145.859 189.265 145.832C189.252 145.791 189.245 145.756 189.245 145.729ZM189.121 145.047C189.135 145.047 189.142 145.047 189.142 145.047C189.155 145.047 189.162 145.047 189.162 145.047C189.162 145.034 189.155 145.027 189.142 145.027L189.121 145.047ZM189.348 145.068C189.389 144.972 189.41 144.923 189.41 144.923C189.41 144.923 189.382 144.896 189.327 144.841C189.272 144.923 189.245 144.965 189.245 144.965C189.245 144.965 189.279 144.999 189.348 145.068ZM189.41 143.478C189.465 143.492 189.506 143.485 189.534 143.458C189.561 143.416 189.575 143.368 189.575 143.313C189.589 143.244 189.603 143.196 189.616 143.168C189.616 143.168 189.568 143.113 189.472 143.003C189.265 143.127 189.148 143.196 189.121 143.21C189.135 143.224 189.162 143.258 189.204 143.313C189.245 143.368 189.279 143.409 189.307 143.437C189.334 143.464 189.369 143.478 189.41 143.478ZM189.761 147.442C189.802 147.456 189.83 147.449 189.844 147.422C189.816 147.408 189.789 147.415 189.761 147.442ZM190.256 146.038C190.27 146.038 190.291 146.011 190.318 145.956C190.153 145.887 190.064 145.852 190.05 145.852C189.981 145.852 189.919 145.873 189.864 145.914C189.809 145.942 189.768 145.976 189.74 146.018C189.713 146.059 189.678 146.114 189.637 146.183C189.596 146.238 189.561 146.286 189.534 146.327C189.534 146.327 189.534 146.389 189.534 146.513C189.644 146.499 189.699 146.486 189.699 146.472C189.768 146.444 189.85 146.369 189.947 146.245C190.057 146.121 190.16 146.052 190.256 146.038ZM190.422 147.339C190.422 147.325 190.422 147.318 190.422 147.318C190.422 147.305 190.422 147.298 190.422 147.298C190.408 147.298 190.401 147.305 190.401 147.318C190.401 147.318 190.408 147.325 190.422 147.339ZM190.339 145.233C190.353 145.206 190.387 145.164 190.442 145.109C190.387 145.095 190.36 145.089 190.36 145.089C190.318 145.144 190.312 145.192 190.339 145.233ZM190.277 141.641C190.305 141.668 190.318 141.682 190.318 141.682C190.332 141.668 190.387 141.634 190.484 141.579C190.456 141.565 190.429 141.544 190.401 141.517C190.387 141.531 190.367 141.551 190.339 141.579C190.312 141.606 190.291 141.627 190.277 141.641ZM190.607 143.499C190.607 143.485 190.614 143.478 190.628 143.478C190.656 143.478 190.676 143.471 190.69 143.458C190.718 143.444 190.745 143.437 190.773 143.437C190.704 143.382 190.635 143.375 190.566 143.416C190.566 143.416 190.58 143.444 190.607 143.499ZM200.72 145.605C200.816 145.66 200.906 145.715 200.988 145.77C201.085 145.825 201.105 145.908 201.05 146.018C200.692 146.72 200.211 147.36 199.605 147.938C199.013 148.502 198.401 148.929 197.767 149.218C197.148 149.507 196.536 149.638 195.93 149.61C195.338 149.583 194.863 149.369 194.505 148.97C194.148 148.571 193.948 148.117 193.907 147.607C193.865 147.181 193.838 146.775 193.824 146.389C193.824 145.99 193.831 145.715 193.845 145.563C193.858 145.398 193.886 145.123 193.927 144.738C193.982 144.352 194.01 144.139 194.01 144.098C194.092 143.341 194.175 142.666 194.258 142.074C194.34 141.482 194.402 141.049 194.443 140.774C194.498 140.485 194.547 140.251 194.588 140.072C194.629 139.879 194.657 139.741 194.671 139.659C194.684 139.562 194.691 139.48 194.691 139.411C194.691 139.315 194.712 139.253 194.753 139.225C194.794 139.198 194.863 139.191 194.96 139.204C195.758 139.204 196.584 139.198 197.437 139.184C198.07 139.184 198.394 139.211 198.407 139.266C198.407 139.28 198.401 139.315 198.387 139.37V139.411C197.726 142.288 197.375 144.215 197.334 145.192C197.265 146.554 197.554 147.057 198.201 146.699C198.27 146.658 198.325 146.623 198.366 146.596C198.421 146.568 198.476 146.534 198.531 146.493C198.586 146.451 198.628 146.424 198.655 146.41C198.683 146.382 198.724 146.341 198.779 146.286C198.848 146.231 198.896 146.19 198.924 146.162C198.951 146.135 199.006 146.073 199.089 145.976C199.171 145.88 199.233 145.811 199.275 145.77C199.316 145.729 199.392 145.639 199.502 145.501C199.626 145.364 199.722 145.254 199.791 145.171C199.805 145.157 199.818 145.144 199.832 145.13C199.846 145.116 199.86 145.109 199.873 145.109C199.901 145.095 199.922 145.095 199.935 145.109C199.963 145.109 199.983 145.116 199.997 145.13C200.025 145.13 200.052 145.144 200.08 145.171C200.121 145.199 200.156 145.226 200.183 145.254C200.224 145.268 200.273 145.295 200.328 145.336C200.396 145.378 200.458 145.419 200.513 145.46C200.568 145.501 200.637 145.55 200.72 145.605ZM196.838 141.145C196.797 141.173 196.783 141.207 196.797 141.248L196.88 141.186C196.866 141.173 196.852 141.159 196.838 141.145ZM196.9 142.941C196.887 142.928 196.88 142.921 196.88 142.921C196.88 142.921 196.873 142.928 196.859 142.941C196.873 142.941 196.88 142.948 196.88 142.962C196.893 142.948 196.9 142.941 196.9 142.941ZM196.384 144.263C196.37 144.249 196.357 144.249 196.343 144.263C196.357 144.263 196.37 144.27 196.384 144.283V144.263ZM195.827 143.313C195.827 143.313 195.806 143.327 195.765 143.354C195.792 143.382 195.82 143.416 195.847 143.458C195.916 143.54 195.964 143.581 195.992 143.581C196.006 143.595 196.019 143.609 196.033 143.623C196.061 143.595 196.068 143.568 196.054 143.54C196.04 143.513 195.964 143.437 195.827 143.313ZM196.095 146.245C196.054 146.217 196.026 146.203 196.013 146.203C196.013 146.19 196.006 146.197 195.992 146.224C195.978 146.238 195.971 146.245 195.971 146.245C195.985 146.259 196.013 146.293 196.054 146.348C196.068 146.348 196.081 146.314 196.095 146.245ZM195.29 143.499C195.276 143.499 195.249 143.513 195.207 143.54C195.18 143.554 195.166 143.561 195.166 143.561C195.221 143.588 195.276 143.581 195.331 143.54C195.331 143.54 195.317 143.526 195.29 143.499ZM195.29 144.531C195.262 144.586 195.228 144.648 195.187 144.717C195.145 144.786 195.118 144.827 195.104 144.841C195.104 144.841 195.104 144.875 195.104 144.944C195.104 144.999 195.111 145.054 195.125 145.109C195.139 145.151 195.166 145.24 195.207 145.378C195.207 145.378 195.235 145.412 195.29 145.481C195.317 145.398 195.331 145.357 195.331 145.357C195.29 145.274 195.283 145.192 195.311 145.109C195.352 145.013 195.386 144.93 195.414 144.861C195.455 144.779 195.448 144.655 195.393 144.49C195.379 144.504 195.359 144.51 195.331 144.51L195.29 144.531ZM195.744 147.36C195.758 147.346 195.772 147.325 195.785 147.298C195.785 147.16 195.737 147.077 195.641 147.05C195.545 147.022 195.421 147.029 195.269 147.071C195.269 147.071 195.242 147.077 195.187 147.091C195.256 147.119 195.29 147.133 195.29 147.133C195.317 147.133 195.345 147.133 195.373 147.133C195.414 147.133 195.448 147.139 195.476 147.153C195.503 147.153 195.531 147.16 195.558 147.174C195.586 147.174 195.607 147.188 195.62 147.215C195.648 147.243 195.662 147.277 195.662 147.318C195.662 147.318 195.689 147.332 195.744 147.36ZM195.889 148.454C195.902 148.44 195.916 148.426 195.93 148.413C195.957 148.399 195.978 148.385 195.992 148.371C195.992 148.371 195.985 148.364 195.971 148.351C195.957 148.337 195.944 148.323 195.93 148.309C195.875 148.351 195.847 148.378 195.847 148.392C195.847 148.392 195.861 148.413 195.889 148.454ZM196.178 147.917C196.205 147.903 196.24 147.89 196.281 147.876C196.322 147.862 196.35 147.848 196.364 147.835C196.35 147.821 196.322 147.8 196.281 147.773C196.198 147.718 196.13 147.711 196.074 147.752C196.047 147.779 196.019 147.807 195.992 147.835C196.006 147.835 196.026 147.841 196.054 147.855C196.081 147.869 196.102 147.883 196.116 147.896C196.143 147.91 196.164 147.917 196.178 147.917ZM196.24 146.843C196.267 146.857 196.302 146.864 196.343 146.864C196.384 146.878 196.446 146.857 196.529 146.802C196.556 146.788 196.577 146.775 196.591 146.761C196.591 146.761 196.591 146.754 196.591 146.74C196.591 146.726 196.591 146.72 196.591 146.72C196.439 146.747 196.322 146.788 196.24 146.843ZM196.715 147.277C196.797 147.346 196.845 147.38 196.859 147.38C196.873 147.38 196.893 147.353 196.921 147.298C196.88 147.27 196.832 147.236 196.776 147.194C196.763 147.236 196.742 147.263 196.715 147.277ZM196.942 138.172C196.46 138.186 196.026 138.014 195.641 137.656C195.269 137.284 195.104 136.851 195.145 136.355C195.104 135.887 195.269 135.468 195.641 135.096C196.013 134.71 196.46 134.518 196.983 134.518C197.547 134.532 197.988 134.731 198.304 135.117C198.635 135.502 198.8 135.922 198.8 136.376C198.8 136.83 198.635 137.243 198.304 137.615C197.974 137.986 197.52 138.172 196.942 138.172ZM197.251 136.355C197.251 136.369 197.244 136.376 197.231 136.376C197.244 136.39 197.251 136.397 197.251 136.397H197.272V136.376C197.272 136.376 197.265 136.369 197.251 136.355ZM207.037 145.77C207.133 145.825 207.154 145.894 207.099 145.976C207.085 146.004 206.968 146.197 206.748 146.554C206.541 146.899 206.383 147.146 206.273 147.298C206.163 147.435 205.956 147.649 205.654 147.938C205.351 148.227 205.014 148.495 204.642 148.743C204.023 149.156 203.417 149.417 202.825 149.527C202.247 149.651 201.758 149.638 201.359 149.486C200.96 149.335 200.63 149.094 200.368 148.764C200.107 148.433 199.962 148.055 199.935 147.628C199.921 147.036 199.907 146.554 199.893 146.183C199.88 145.797 199.907 145.281 199.976 144.634C200.045 143.987 200.1 143.464 200.141 143.065C200.182 142.666 200.251 142.157 200.348 141.537C200.444 140.918 200.52 140.45 200.575 140.134C200.643 139.803 200.719 139.39 200.802 138.895C200.898 138.385 200.96 138.041 200.988 137.862C201.098 137.284 201.208 136.617 201.318 135.86C201.428 135.172 201.504 134.772 201.545 134.662C201.6 134.552 201.731 134.504 201.937 134.518C202.047 134.532 202.137 134.538 202.206 134.538C202.357 134.538 202.798 134.538 203.527 134.538C204.27 134.538 204.786 134.538 205.076 134.538C205.158 134.538 205.206 134.545 205.22 134.559C205.234 134.573 205.234 134.628 205.22 134.724C205 135.701 204.752 136.837 204.477 138.131C204.215 139.411 203.94 140.973 203.651 142.818C203.362 144.662 203.272 145.791 203.383 146.203C203.465 146.506 203.589 146.692 203.754 146.761C203.933 146.83 204.133 146.795 204.353 146.658C204.573 146.52 204.786 146.355 204.993 146.162C205.199 145.956 205.42 145.701 205.654 145.398C205.736 145.302 205.791 145.24 205.819 145.212C205.86 145.185 205.894 145.157 205.922 145.13C205.963 145.102 206.011 145.109 206.067 145.151C206.135 145.192 206.197 145.233 206.252 145.274C206.321 145.316 206.431 145.385 206.583 145.481C206.734 145.577 206.885 145.674 207.037 145.77ZM203.568 136.913C203.527 136.885 203.493 136.878 203.465 136.892C203.506 136.933 203.527 136.954 203.527 136.954C203.527 136.954 203.541 136.94 203.568 136.913ZM202.433 144.263C202.419 144.249 202.405 144.249 202.392 144.263C202.405 144.263 202.419 144.27 202.433 144.283V144.263ZM201.917 138.833C201.889 138.86 201.882 138.888 201.896 138.915C201.91 138.915 201.924 138.902 201.937 138.874C201.937 138.874 201.93 138.867 201.917 138.853C201.917 138.84 201.917 138.833 201.917 138.833ZM201.401 143.561C201.387 143.547 201.373 143.533 201.359 143.519C201.332 143.506 201.284 143.513 201.215 143.54C201.187 143.554 201.167 143.568 201.153 143.581C201.208 143.595 201.256 143.609 201.297 143.623C201.311 143.609 201.325 143.602 201.339 143.602L201.401 143.561ZM201.359 144.552C201.332 144.552 201.284 144.607 201.215 144.717C201.16 144.827 201.139 144.903 201.153 144.944C201.222 145.233 201.277 145.412 201.318 145.481C201.345 145.44 201.387 145.247 201.442 144.903C201.442 144.889 201.469 144.82 201.524 144.696C201.428 144.6 201.373 144.552 201.359 144.552ZM201.772 147.36C201.772 147.36 201.786 147.339 201.813 147.298C201.827 147.16 201.786 147.077 201.69 147.05C201.593 147.022 201.469 147.029 201.318 147.071C201.318 147.071 201.29 147.077 201.235 147.091C201.29 147.119 201.318 147.133 201.318 147.133C201.538 147.119 201.676 147.188 201.731 147.339L201.772 147.36ZM202.164 143.54C201.985 143.402 201.889 143.334 201.875 143.334C201.875 143.334 201.855 143.334 201.813 143.334C201.827 143.361 201.841 143.396 201.855 143.437C201.882 143.464 201.896 143.485 201.896 143.499C201.91 143.513 201.924 143.533 201.937 143.561C201.965 143.575 201.985 143.581 201.999 143.581C202.013 143.581 202.034 143.588 202.061 143.602C202.061 143.602 202.096 143.581 202.164 143.54ZM202.102 146.348C202.116 146.293 202.102 146.231 202.061 146.162C202.02 146.217 201.999 146.252 201.999 146.265C201.999 146.265 202.034 146.293 202.102 146.348ZM201.917 148.454C201.917 148.44 201.937 148.433 201.979 148.433C202.02 148.419 202.054 148.406 202.082 148.392C202.013 148.337 201.944 148.33 201.875 148.371C201.875 148.371 201.889 148.399 201.917 148.454ZM202.226 147.917C202.295 147.89 202.357 147.862 202.412 147.835C202.385 147.821 202.357 147.8 202.33 147.773C202.233 147.718 202.164 147.711 202.123 147.752C202.082 147.779 202.054 147.807 202.041 147.835C202.068 147.848 202.109 147.869 202.164 147.896C202.192 147.91 202.213 147.917 202.226 147.917ZM202.392 146.905C202.488 146.85 202.564 146.802 202.619 146.761C202.591 146.733 202.57 146.72 202.557 146.72C202.557 146.72 202.467 146.768 202.288 146.864C202.288 146.864 202.302 146.871 202.33 146.885C202.357 146.885 202.378 146.892 202.392 146.905ZM202.784 141.269C202.825 141.255 202.88 141.235 202.949 141.207C202.88 141.152 202.818 141.145 202.763 141.186C202.763 141.186 202.77 141.214 202.784 141.269ZM202.928 142.941C202.928 142.928 202.928 142.921 202.928 142.921C202.915 142.935 202.908 142.941 202.908 142.941C202.908 142.941 202.908 142.948 202.908 142.962C202.908 142.962 202.915 142.962 202.928 142.962C202.928 142.962 202.928 142.955 202.928 142.941ZM202.763 147.277C202.846 147.346 202.887 147.38 202.887 147.38C202.887 147.38 202.915 147.36 202.97 147.318C202.887 147.25 202.839 147.215 202.825 147.215C202.825 147.201 202.804 147.222 202.763 147.277ZM203.052 138.812C203.149 138.647 203.197 138.558 203.197 138.544C203.197 138.53 203.176 138.496 203.135 138.441C203.093 138.454 203.052 138.475 203.011 138.502C202.983 138.516 202.949 138.537 202.908 138.564C202.88 138.578 202.86 138.592 202.846 138.606C202.86 138.619 202.887 138.654 202.928 138.709C202.983 138.75 203.025 138.785 203.052 138.812ZM203.259 136.52C203.3 136.438 203.314 136.369 203.3 136.314C203.231 136.383 203.197 136.417 203.197 136.417C203.197 136.417 203.217 136.452 203.259 136.52Z" fill="white"/>
<path fill-rule="evenodd" clip-rule="evenodd" d="M1238.66 123.661L1229.95 148.312C1219.79 172.963 1200.91 222.264 1182.04 238.698C1163.16 255.132 1144.29 238.698 1126.87 219.525C1107.99 200.352 1089.12 178.441 1070.24 189.397C1051.37 200.352 1032.49 244.176 1013.62 238.698C994.745 233.22 975.871 178.441 956.996 178.441C939.574 178.441 920.699 233.22 901.825 246.915C882.95 260.61 864.076 233.22 845.201 225.003C826.327 216.786 807.452 227.742 788.578 233.22C769.703 238.698 752.281 238.698 733.406 244.176C714.532 249.654 695.657 260.61 676.783 257.871C657.908 255.132 639.034 238.698 620.159 214.047C601.285 189.397 582.41 156.529 563.536 167.485C546.113 178.441 527.239 233.22 508.364 246.915C489.49 260.61 470.615 233.22 451.741 214.047C432.866 194.875 413.992 183.919 395.117 192.136C376.243 200.352 358.82 227.742 339.945 225.003C321.071 222.264 302.196 189.397 283.322 175.702C264.448 162.007 245.573 167.485 226.699 178.441C207.824 189.397 188.95 205.83 171.527 208.569C152.652 211.308 133.778 200.352 114.903 197.613C96.029 194.875 77.1545 200.352 58.28 194.875C39.4055 189.397 20.531 172.963 1.65653 186.658C-17.218 200.352 -34.6406 244.176 -53.5151 260.61C-72.3896 277.044 -91.264 266.088 -110.139 241.437C-129.013 216.786 -147.888 178.441 -166.762 159.268C-185.636 140.095 -204.511 140.095 -221.934 140.095C-240.808 140.095 -259.683 140.095 -278.557 162.007C-297.432 183.919 -316.306 227.742 -335.181 235.959C-354.055 244.176 -372.93 216.786 -391.804 194.875C-409.227 172.963 -428.101 156.529 -446.976 164.746C-465.85 172.963 -484.725 205.83 -494.888 222.264L-503.599 238.698V288H-494.888C-484.725 288 -465.85 288 -446.976 288C-428.101 288 -409.227 288 -391.804 288C-372.93 288 -354.055 288 -335.181 288C-316.306 288 -297.432 288 -278.557 288C-259.683 288 -240.808 288 -221.934 288C-204.511 288 -185.636 288 -166.762 288C-147.888 288 -129.013 288 -110.139 288C-91.264 288 -72.3896 288 -53.5151 288C-34.6406 288 -17.218 288 1.65653 288C20.531 288 39.4055 288 58.28 288C77.1545 288 96.029 288 114.903 288C133.778 288 152.652 288 171.527 288C188.95 288 207.824 288 226.699 288C245.573 288 264.448 288 283.322 288C302.196 288 321.071 288 339.945 288C358.82 288 376.243 288 395.117 288C413.992 288 432.866 288 451.741 288C470.615 288 489.49 288 508.364 288C527.239 288 546.113 288 563.536 288C582.41 288 601.285 288 620.159 288C639.034 288 657.908 288 676.783 288C695.657 288 714.532 288 733.406 288C752.281 288 769.703 288 788.578 288C807.452 288 826.327 288 845.201 288C864.076 288 882.95 288 901.825 288C920.699 288 939.574 288 956.996 288C975.871 288 994.745 288 1013.62 288C1032.49 288 1051.37 288 1070.24 288C1089.12 288 1107.99 288 1126.87 288C1144.29 288 1163.16 288 1182.04 288C1200.91 288 1219.79 288 1229.95 288H1238.66V123.661Z" fill="#CBE2B6"/>
<rect y="287" width="375" height="33" fill="#A4CD7F"/>
<path fill-rule="evenodd" clip-rule="evenodd" d="M-971.302 171.41L-962.443 188.899C-952.108 206.387 -932.915 241.364 -913.722 253.023C-894.528 264.682 -875.335 253.023 -857.618 239.421C-838.425 225.819 -819.231 210.273 -800.038 218.046C-780.845 225.819 -761.651 256.909 -742.458 253.023C-723.264 249.137 -704.071 210.273 -684.878 210.273C-667.161 210.273 -647.967 249.137 -628.774 258.852C-609.581 268.568 -590.387 249.137 -571.194 243.307C-552.001 237.478 -532.807 245.25 -513.614 249.137C-494.421 253.023 -476.704 253.023 -457.51 256.909C-438.317 260.796 -419.124 268.568 -399.93 266.625C-380.737 264.682 -361.543 253.023 -342.35 235.535C-323.157 218.046 -303.963 194.728 -284.77 202.501C-267.053 210.273 -247.86 249.137 -228.666 258.852C-209.473 268.568 -190.28 249.137 -171.086 235.535C-151.893 221.932 -132.7 214.16 -113.506 219.989C-94.3129 225.819 -76.5959 245.25 -57.4025 243.307C-38.2092 241.364 -19.0158 218.046 0.177533 208.33C19.3709 198.614 38.5643 202.501 57.7576 210.273C76.951 218.046 96.1443 229.705 113.861 231.648C133.055 233.591 152.248 225.819 171.441 223.876C190.635 221.932 209.828 225.819 229.021 221.932C248.215 218.046 267.408 206.387 286.602 216.103C305.795 225.819 323.512 256.909 342.705 268.568C361.899 280.227 381.092 272.455 400.285 254.966C419.479 237.478 438.672 210.273 457.865 196.671C477.059 183.069 496.252 183.069 513.969 183.069C533.162 183.069 552.356 183.069 571.549 198.614C590.742 214.16 609.936 245.25 629.129 251.08C648.323 256.909 667.516 237.478 686.709 221.932C704.426 206.387 723.62 194.728 742.813 200.558C762.006 206.387 781.2 229.705 791.535 241.364L800.393 253.023V288H791.535C781.2 288 762.006 288 742.813 288C723.62 288 704.426 288 686.709 288C667.516 288 648.323 288 629.129 288C609.936 288 590.742 288 571.549 288C552.356 288 533.162 288 513.969 288C496.252 288 477.059 288 457.865 288C438.672 288 419.479 288 400.285 288C381.092 288 361.899 288 342.705 288C323.512 288 305.795 288 286.602 288C267.408 288 248.215 288 229.021 288C209.828 288 190.635 288 171.441 288C152.248 288 133.055 288 113.861 288C96.1443 288 76.951 288 57.7576 288C38.5643 288 19.3709 288 0.177533 288C-19.0158 288 -38.2092 288 -57.4025 288C-76.5959 288 -94.3129 288 -113.506 288C-132.7 288 -151.893 288 -171.086 288C-190.28 288 -209.473 288 -228.666 288C-247.86 288 -267.053 288 -284.77 288C-303.963 288 -323.157 288 -342.35 288C-361.543 288 -380.737 288 -399.93 288C-419.124 288 -438.317 288 -457.51 288C-476.704 288 -494.421 288 -513.614 288C-532.807 288 -552.001 288 -571.194 288C-590.387 288 -609.581 288 -628.774 288C-647.967 288 -667.161 288 -684.878 288C-704.071 288 -723.264 288 -742.458 288C-761.651 288 -780.845 288 -800.038 288C-819.231 288 -838.425 288 -857.618 288C-875.335 288 -894.528 288 -913.722 288C-932.915 288 -952.108 288 -962.443 288H-971.302V171.41Z" fill="#A4CD7F"/>
</g>
<defs>
<linearGradient id="paint0_linear_501_7050" x1="201.22" y1="44.5806" x2="201.22" y2="71.6329" gradientUnits="userSpaceOnUse">
<stop stop-color="#EEE9E9"/>
<stop offset="1" stop-color="#FDFDFD" stop-opacity="0.77"/>
</linearGradient>
<linearGradient id="paint1_linear_501_7050" x1="219.764" y1="50.6892" x2="219.764" y2="77.7416" gradientUnits="userSpaceOnUse">
<stop stop-color="#EEE9E9"/>
<stop offset="1" stop-color="#FDFDFD" stop-opacity="0.77"/>
</linearGradient>
<linearGradient id="paint2_linear_501_7050" x1="213.874" y1="33.6721" x2="213.874" y2="60.2881" gradientUnits="userSpaceOnUse">
<stop stop-color="#EEE9E9"/>
<stop offset="1" stop-color="#FDFDFD" stop-opacity="0.77"/>
</linearGradient>
<linearGradient id="paint3_linear_501_7050" x1="248.78" y1="38.4719" x2="248.78" y2="65.5243" gradientUnits="userSpaceOnUse">
<stop stop-color="#EEE9E9"/>
<stop offset="1" stop-color="#FDFDFD" stop-opacity="0.77"/>
</linearGradient>
<linearGradient id="paint4_linear_501_7050" x1="238.09" y1="48.071" x2="238.09" y2="74.6871" gradientUnits="userSpaceOnUse">
<stop stop-color="#EEE9E9"/>
<stop offset="1" stop-color="#FDFDFD" stop-opacity="0.77"/>
</linearGradient>
<linearGradient id="paint5_linear_501_7050" x1="234.381" y1="33.6721" x2="234.381" y2="60.2881" gradientUnits="userSpaceOnUse">
<stop stop-color="#EEE9E9"/>
<stop offset="1" stop-color="#FDFDFD" stop-opacity="0.77"/>
</linearGradient>
<linearGradient id="paint6_linear_501_7050" x1="11.5773" y1="35.7295" x2="11.5773" y2="84.1404" gradientUnits="userSpaceOnUse">
<stop stop-color="#EEE9E9"/>
<stop offset="1" stop-color="#FDFDFD" stop-opacity="0.77"/>
</linearGradient>
<linearGradient id="paint7_linear_501_7050" x1="44.7618" y1="46.6611" x2="44.7618" y2="95.072" gradientUnits="userSpaceOnUse">
<stop stop-color="#EEE9E9"/>
<stop offset="1" stop-color="#FDFDFD" stop-opacity="0.77"/>
</linearGradient>
<linearGradient id="paint8_linear_501_7050" x1="34.2211" y1="16.209" x2="34.2211" y2="63.839" gradientUnits="userSpaceOnUse">
<stop stop-color="#EEE9E9"/>
<stop offset="1" stop-color="#FDFDFD" stop-opacity="0.77"/>
</linearGradient>
<linearGradient id="paint9_linear_501_7050" x1="96.6866" y1="24.798" x2="96.6866" y2="73.2088" gradientUnits="userSpaceOnUse">
<stop stop-color="#EEE9E9"/>
<stop offset="1" stop-color="#FDFDFD" stop-opacity="0.77"/>
</linearGradient>
<linearGradient id="paint10_linear_501_7050" x1="77.5565" y1="41.9761" x2="77.5565" y2="89.6061" gradientUnits="userSpaceOnUse">
<stop stop-color="#EEE9E9"/>
<stop offset="1" stop-color="#FDFDFD" stop-opacity="0.77"/>
</linearGradient>
<linearGradient id="paint11_linear_501_7050" x1="70.9193" y1="16.209" x2="70.9193" y2="63.839" gradientUnits="userSpaceOnUse">
<stop stop-color="#EEE9E9"/>
<stop offset="1" stop-color="#FDFDFD" stop-opacity="0.77"/>
</linearGradient>
<linearGradient id="paint12_linear_501_7050" x1="258.217" y1="53.536" x2="258.217" y2="101.947" gradientUnits="userSpaceOnUse">
<stop stop-color="#EEE9E9"/>
<stop offset="1" stop-color="#FDFDFD" stop-opacity="0.77"/>
</linearGradient>
<linearGradient id="paint13_linear_501_7050" x1="291.401" y1="64.4675" x2="291.401" y2="112.878" gradientUnits="userSpaceOnUse">
<stop stop-color="#EEE9E9"/>
<stop offset="1" stop-color="#FDFDFD" stop-opacity="0.77"/>
</linearGradient>
<linearGradient id="paint14_linear_501_7050" x1="280.86" y1="34.0154" x2="280.86" y2="81.6454" gradientUnits="userSpaceOnUse">
<stop stop-color="#EEE9E9"/>
<stop offset="1" stop-color="#FDFDFD" stop-opacity="0.77"/>
</linearGradient>
<linearGradient id="paint15_linear_501_7050" x1="343.326" y1="42.6044" x2="343.326" y2="91.0152" gradientUnits="userSpaceOnUse">
<stop stop-color="#EEE9E9"/>
<stop offset="1" stop-color="#FDFDFD" stop-opacity="0.77"/>
</linearGradient>
<linearGradient id="paint16_linear_501_7050" x1="324.196" y1="59.7824" x2="324.196" y2="107.412" gradientUnits="userSpaceOnUse">
<stop stop-color="#EEE9E9"/>
<stop offset="1" stop-color="#FDFDFD" stop-opacity="0.77"/>
</linearGradient>
<linearGradient id="paint17_linear_501_7050" x1="317.559" y1="34.0154" x2="317.559" y2="81.6454" gradientUnits="userSpaceOnUse">
<stop stop-color="#EEE9E9"/>
<stop offset="1" stop-color="#FDFDFD" stop-opacity="0.77"/>
</linearGradient>
<clipPath id="clip0_501_7050">
<rect width="375" height="320" fill="white"/>
</clipPath>
</defs>
</svg>
